<svg xmlns="http://www.w3.org/2000/svg" viewBox="0 0 240 300" role="img"><defs><radialGradient id="bg" cx="50%" cy="34%" r="82%"><stop offset="0" stop-color="#26405e"/><stop offset="1" stop-color="#101c30"/></radialGradient></defs><rect width="240" height="300" fill="url(#bg)"/><path d="M40 300 q0 -92 80 -92 q80 0 80 92 Z" fill="#5a8f6b" /><ellipse cx="120" cy="150" rx="78" ry="30" fill="#f3ece0"/><circle cx="120" cy="120" r="60" fill="#f3ece0" /><circle cx="120" cy="120" r="46" fill="#c98f63" /><circle cx="103" cy="118" r="5" fill="#ffffff" /><circle cx="103" cy="118" r="2.6" fill="#2a2140" /><circle cx="137" cy="118" r="5" fill="#ffffff" /><circle cx="137" cy="118" r="2.6" fill="#2a2140" /><path d="M96 102 q7 -3 14 0" fill="none" stroke="#2a2140" stroke-width="3.4" stroke-linecap="round" /><path d="M130 102 q7 0 14 3" fill="none" stroke="#2a2140" stroke-width="3.4" stroke-linecap="round" /><path d="M108 146 q12 10 24 0 q-12 -4 -24 0 Z" fill="#e2604f" /><rect x="109" y="145" width="22" height="2.5" rx="1" fill="#ffffff" /></svg>