<svg xmlns="http://www.w3.org/2000/svg" viewBox="0 0 240 300" role="img"><defs><radialGradient id="bg" cx="50%" cy="34%" r="82%"><stop offset="0" stop-color="#3a4a66"/><stop offset="1" stop-color="#16202e"/></radialGradient></defs><rect width="240" height="300" fill="url(#bg)"/><ellipse cx="120" cy="230" rx="86" ry="66" fill="#f3ece0"/><circle cx="120" cy="96" r="56" fill="#f3ece0" /><circle cx="88" cy="62" r="16" fill="#f3ece0" /><circle cx="152" cy="62" r="16" fill="#f3ece0" /><circle cx="120" cy="104" r="6" fill="#2a2140" /><circle cx="102" cy="90" r="6" fill="#e2604f" /><circle cx="138" cy="90" r="6" fill="#e2604f" /><path d="M96 110 q24 20 48 0 l0 8 q-24 18 -48 0 Z" fill="#0b1020" /><polygon points="100,118 96,110 104,110" fill="#ffffff" /><polygon points="109,118 105,110 113,110" fill="#ffffff" /><polygon points="118,118 114,110 122,110" fill="#ffffff" /><polygon points="127,118 123,110 131,110" fill="#ffffff" /><polygon points="136,118 132,110 140,110" fill="#ffffff" /><polygon points="145,118 141,110 149,110" fill="#ffffff" /></svg>