<svg xmlns="http://www.w3.org/2000/svg" viewBox="0 0 100 100" role="img"><defs><linearGradient id="g" x1="0" y1="0" x2="0" y2="1"><stop offset="0" stop-color="#3a1e1a"/><stop offset="1" stop-color="#220f0c"/></linearGradient></defs><rect x="2" y="2" width="96" height="96" rx="20" fill="url(#g)"/><path d="M50 22 q16 18 12 34 q14 -2 8 -18 q10 10 6 26 q-6 18 -26 18 q-22 0 -26 -20 q-2 -16 12 -22 q-4 12 6 14 q-8 -18 8 -32 Z" fill="#ff9f5a" /><path d="M50 44 q8 10 4 20 q-4 10 -12 8 q-8 -2 -6 -14 q2 -10 14 -14 Z" fill="#ffd479" /></svg>