<svg xmlns="http://www.w3.org/2000/svg" viewBox="0 0 100 100" role="img"><defs><linearGradient id="g" x1="0" y1="0" x2="0" y2="1"><stop offset="0" stop-color="#2e4a3e"/><stop offset="1" stop-color="#16281f"/></linearGradient></defs><rect x="2" y="2" width="96" height="96" rx="20" fill="url(#g)"/><circle cx="64" cy="34" r="12" fill="#ffd479" /><line x1="64" y1="34" x2="84.0" y2="34.0" stroke="#ffcf7a" stroke-width="3" stroke-linecap="round" /><line x1="64" y1="34" x2="78.14210965022473" y2="48.14216159718947" stroke="#ffcf7a" stroke-width="3" stroke-linecap="round" /><line x1="64" y1="34" x2="63.999926535897934" y2="53.999999999865075" stroke="#ffcf7a" stroke-width="3" stroke-linecap="round" /><line x1="64" y1="34" x2="49.8577864560366" y2="48.14205770306917" stroke="#ffcf7a" stroke-width="3" stroke-linecap="round" /><line x1="64" y1="34" x2="44.0000000005397" y2="33.99985307179587" stroke="#ffcf7a" stroke-width="3" stroke-linecap="round" /><line x1="64" y1="34" x2="49.8579942442772" y2="19.857734509453472" stroke="#ffcf7a" stroke-width="3" stroke-linecap="round" /><line x1="64" y1="34" x2="64.00022039230619" y2="14.000000001214321" stroke="#ffcf7a" stroke-width="3" stroke-linecap="round" /><line x1="64" y1="34" x2="78.14231743693882" y2="19.858046191814374" stroke="#ffcf7a" stroke-width="3" stroke-linecap="round" /><path d="M20 66 q14 -8 28 0 t28 0" stroke="#6fb7ff" stroke-width="4" fill="none"/><line x1="38" y1="60" x2="38" y2="44" stroke="#7ef1c9" stroke-width="3" stroke-linecap="round" /><path d="M38 50 q8 -4 10 -10" stroke="#7ef1c9" stroke-width="3" fill="none"/></svg>