<svg xmlns="http://www.w3.org/2000/svg" viewBox="0 0 240 300" role="img"><defs><radialGradient id="bg" cx="50%" cy="34%" r="82%"><stop offset="0" stop-color="#123a4e"/><stop offset="1" stop-color="#06202c"/></radialGradient></defs><rect width="240" height="300" fill="url(#bg)"/><path d="M120 120 q64 44 42 168 l-84 0 q-22 -128 42 -168 Z" fill="#8fe3d6" opacity="0.65"/><path d="M86 96 q-6 60 4 96" fill="#4b6aa5" opacity="0.4"/><path d="M104 96 q-6 60 4 96" fill="#4b6aa5" opacity="0.4"/><path d="M136 96 q-6 60 4 96" fill="#4b6aa5" opacity="0.4"/><path d="M154 96 q-6 60 4 96" fill="#4b6aa5" opacity="0.4"/><path d="M64 108 q56 -54 112 0 q-8 70 -56 82 q-48 -12 -56 -82 Z" fill="#6fb7ff" /><circle cx="120" cy="122" r="44" fill="#8fe3d6" /><circle cx="105" cy="120" r="6" fill="#ffffff" /><circle cx="105" cy="120" r="2.6" fill="#2a2140" /><circle cx="135" cy="120" r="6" fill="#ffffff" /><circle cx="135" cy="120" r="2.6" fill="#2a2140" /><circle cx="103" cy="118" r="1.2" fill="#ffffff" /><circle cx="133" cy="118" r="1.2" fill="#ffffff" /><path d="M98 114 q7 -3 14 10" fill="none" stroke="#4b6aa5" stroke-width="3.4" stroke-linecap="round" /><path d="M128 104 q7 -10 14 3" fill="none" stroke="#4b6aa5" stroke-width="3.4" stroke-linecap="round" /><path d="M107 156 q13 -12 26 0" fill="none" stroke="#2a2140" stroke-width="3" stroke-linecap="round" /></svg>