<svg xmlns="http://www.w3.org/2000/svg" viewBox="0 0 240 300" role="img"><defs><radialGradient id="bg" cx="50%" cy="34%" r="82%"><stop offset="0" stop-color="#3a2a12"/><stop offset="1" stop-color="#180f06"/></radialGradient></defs><rect width="240" height="300" fill="url(#bg)"/><circle cx="120" cy="120" r="78" fill="#ffcf7a" opacity="0.2"/><line x1="120" y1="120" x2="212.0" y2="120.0" stroke="#ffcf7a" stroke-width="6" stroke-linecap="round" /><line x1="120" y1="120" x2="199.67433714816838" y2="166.0" stroke="#ffcf7a" stroke-width="6" stroke-linecap="round" /><line x1="120" y1="120" x2="166.0" y2="199.67433714816835" stroke="#ffcf7a" stroke-width="6" stroke-linecap="round" /><line x1="120" y1="120" x2="120.0" y2="212.0" stroke="#ffcf7a" stroke-width="6" stroke-linecap="round" /><line x1="120" y1="120" x2="74.00000000000003" y2="199.67433714816838" stroke="#ffcf7a" stroke-width="6" stroke-linecap="round" /><line x1="120" y1="120" x2="40.32566285183164" y2="166.0" stroke="#ffcf7a" stroke-width="6" stroke-linecap="round" /><line x1="120" y1="120" x2="28.0" y2="120.00000000000001" stroke="#ffcf7a" stroke-width="6" stroke-linecap="round" /><line x1="120" y1="120" x2="40.32566285183162" y2="74.00000000000003" stroke="#ffcf7a" stroke-width="6" stroke-linecap="round" /><line x1="120" y1="120" x2="73.99999999999996" y2="40.325662851831666" stroke="#ffcf7a" stroke-width="6" stroke-linecap="round" /><line x1="120" y1="120" x2="119.99999999999999" y2="28.0" stroke="#ffcf7a" stroke-width="6" stroke-linecap="round" /><line x1="120" y1="120" x2="166.0" y2="40.32566285183165" stroke="#ffcf7a" stroke-width="6" stroke-linecap="round" /><line x1="120" y1="120" x2="199.67433714816832" y2="73.99999999999996" stroke="#ffcf7a" stroke-width="6" stroke-linecap="round" /><circle cx="120" cy="120" r="58" fill="#ffd479" /><circle cx="120" cy="120" r="40" fill="#ffd479" /><circle cx="106" cy="118" r="4.5" fill="#ffffff" /><circle cx="106" cy="118" r="2.6" fill="#2a2140" /><circle cx="134" cy="118" r="4.5" fill="#ffffff" /><circle cx="134" cy="118" r="2.6" fill="#2a2140" /><path d="M99 99 q7 -3 14 -4" fill="none" stroke="#ff9f5a" stroke-width="3.4" stroke-linecap="round" /><path d="M127 103 q7 4 14 3" fill="none" stroke="#ff9f5a" stroke-width="3.4" stroke-linecap="round" /><line x1="114" y1="147" x2="126" y2="147" stroke="#2a2140" stroke-width="3" stroke-linecap="round" /><path d="M78 150 q42 -20 84 0 q-10 22 -42 22 q-32 0 -42 -22 Z" fill="#ffd479" opacity="0.85"/></svg>