<svg xmlns="http://www.w3.org/2000/svg" viewBox="0 0 240 300" role="img"><defs><radialGradient id="bg" cx="50%" cy="34%" r="82%"><stop offset="0" stop-color="#3a2e5e"/><stop offset="1" stop-color="#1a1430"/></radialGradient></defs><rect width="240" height="300" fill="url(#bg)"/><path d="M74 116 q46 -42 92 0 q-6 -30 -46 -30 q-40 0 -46 30 Z" fill="#9fb0d6" /><path d="M40 300 q0 -92 80 -92 q80 0 80 92 Z" fill="#c96f4a" /><ellipse cx="120" cy="150" rx="78" ry="30" fill="#f3ece0"/><circle cx="120" cy="120" r="60" fill="#f3ece0" /><circle cx="120" cy="120" r="46" fill="#c98f63" /><circle cx="103" cy="118" r="4.5" fill="#ffffff" /><circle cx="103" cy="118" r="2.6" fill="#2a2140" /><circle cx="137" cy="118" r="4.5" fill="#ffffff" /><circle cx="137" cy="118" r="2.6" fill="#2a2140" /><path d="M96 101 q7 -3 14 -2" fill="none" stroke="#9fb0d6" stroke-width="3.4" stroke-linecap="round" /><path d="M130 103 q7 2 14 3" fill="none" stroke="#9fb0d6" stroke-width="3.4" stroke-linecap="round" /><path d="M106 146 q14 12 28 0" fill="none" stroke="#2a2140" stroke-width="3" stroke-linecap="round" /><path d="M110 128 q-3 12 0 20 q3 -8 0 -20 Z" fill="#6fb7ff" opacity="0.8"/></svg>