<svg xmlns="http://www.w3.org/2000/svg" viewBox="0 0 240 300" role="img"><defs><radialGradient id="bg" cx="50%" cy="34%" r="82%"><stop offset="0" stop-color="#2e4a58"/><stop offset="1" stop-color="#16262e"/></radialGradient></defs><rect width="240" height="300" fill="url(#bg)"/><path d="M40 300 q0 -92 80 -92 q80 0 80 92 Z" fill="#ff9f5a" /><ellipse cx="120" cy="150" rx="78" ry="30" fill="#f3ece0"/><circle cx="120" cy="120" r="60" fill="#f3ece0" /><circle cx="120" cy="120" r="46" fill="#e7b58c" /><circle cx="103" cy="118" r="6" fill="#ffffff" /><circle cx="103" cy="118" r="2.6" fill="#2a2140" /><circle cx="137" cy="118" r="6" fill="#ffffff" /><circle cx="137" cy="118" r="2.6" fill="#2a2140" /><circle cx="101" cy="116" r="1.2" fill="#ffffff" /><circle cx="135" cy="116" r="1.2" fill="#ffffff" /><path d="M96 99 q7 -3 14 0" fill="none" stroke="#2a2140" stroke-width="3.4" stroke-linecap="round" /><path d="M130 99 q7 0 14 3" fill="none" stroke="#2a2140" stroke-width="3.4" stroke-linecap="round" /><path d="M104 146 q16 16 32 0 Z" fill="#2a2140" /><rect x="107" y="145" width="26" height="3" rx="1" fill="#ffffff" /><circle cx="100" cy="134" r="6" fill="#ff8ba7" opacity="0.4"/><circle cx="140" cy="134" r="6" fill="#ff8ba7" opacity="0.4"/></svg>