<svg xmlns="http://www.w3.org/2000/svg" viewBox="0 0 1200 675" preserveAspectRatio="xMidYMid slice" role="img"><defs><linearGradient id="sky" x1="0" y1="0" x2="0" y2="1"><stop offset="0" stop-color="#0a0e26"/><stop offset="0.6" stop-color="#122045"/><stop offset="1" stop-color="#0c1730"/></linearGradient><linearGradient id="au" x1="0" y1="0" x2="0" y2="1"><stop offset="0" stop-color="#7ef1c9"/><stop offset="1" stop-color="#0a0e26"/></linearGradient></defs><rect x="0" y="0" width="1200" height="675" rx="0" fill="url(#sky)" /><circle cx="0" cy="0" r="0.6" fill="#ffffff" opacity="0.8"/><circle cx="137" cy="89" r="1.2" fill="#ffffff" opacity="0.8"/><circle cx="274" cy="178" r="1.7999999999999998" fill="#ffffff" opacity="0.8"/><circle cx="411" cy="267" r="0.6" fill="#ffffff" opacity="0.8"/><circle cx="548" cy="356" r="1.2" fill="#ffffff" opacity="0.8"/><circle cx="685" cy="85" r="1.7999999999999998" fill="#ffffff" opacity="0.8"/><circle cx="822" cy="174" r="0.6" fill="#ffffff" opacity="0.8"/><circle cx="959" cy="263" r="1.2" fill="#ffffff" opacity="0.8"/><circle cx="1096" cy="352" r="1.7999999999999998" fill="#ffffff" opacity="0.8"/><circle cx="33" cy="81" r="0.6" fill="#ffffff" opacity="0.8"/><circle cx="170" cy="170" r="1.2" fill="#ffffff" opacity="0.8"/><circle cx="307" cy="259" r="1.7999999999999998" fill="#ffffff" opacity="0.8"/><circle cx="444" cy="348" r="0.6" fill="#ffffff" opacity="0.8"/><circle cx="581" cy="77" r="1.2" fill="#ffffff" opacity="0.8"/><circle cx="718" cy="166" r="1.7999999999999998" fill="#ffffff" opacity="0.8"/><circle cx="855" cy="255" r="0.6" fill="#ffffff" opacity="0.8"/><circle cx="992" cy="344" r="1.2" fill="#ffffff" opacity="0.8"/><circle cx="1129" cy="73" r="1.7999999999999998" fill="#ffffff" opacity="0.8"/><circle cx="66" cy="162" r="0.6" fill="#ffffff" opacity="0.8"/><circle cx="203" cy="251" r="1.2" fill="#ffffff" opacity="0.8"/><circle cx="340" cy="340" r="1.7999999999999998" fill="#ffffff" opacity="0.8"/><circle cx="477" cy="69" r="0.6" fill="#ffffff" opacity="0.8"/><circle cx="614" cy="158" r="1.2" fill="#ffffff" opacity="0.8"/><circle cx="751" cy="247" r="1.7999999999999998" fill="#ffffff" opacity="0.8"/><circle cx="888" cy="336" r="0.6" fill="#ffffff" opacity="0.8"/><circle cx="1025" cy="65" r="1.2" fill="#ffffff" opacity="0.8"/><circle cx="1162" cy="154" r="1.7999999999999998" fill="#ffffff" opacity="0.8"/><circle cx="99" cy="243" r="0.6" fill="#ffffff" opacity="0.8"/><circle cx="236" cy="332" r="1.2" fill="#ffffff" opacity="0.8"/><circle cx="373" cy="61" r="1.7999999999999998" fill="#ffffff" opacity="0.8"/><circle cx="510" cy="150" r="0.6" fill="#ffffff" opacity="0.8"/><circle cx="647" cy="239" r="1.2" fill="#ffffff" opacity="0.8"/><circle cx="784" cy="328" r="1.7999999999999998" fill="#ffffff" opacity="0.8"/><circle cx="921" cy="57" r="0.6" fill="#ffffff" opacity="0.8"/><circle cx="1058" cy="146" r="1.2" fill="#ffffff" opacity="0.8"/><circle cx="1195" cy="235" r="1.7999999999999998" fill="#ffffff" opacity="0.8"/><circle cx="132" cy="324" r="0.6" fill="#ffffff" opacity="0.8"/><circle cx="269" cy="53" r="1.2" fill="#ffffff" opacity="0.8"/><circle cx="406" cy="142" r="1.7999999999999998" fill="#ffffff" opacity="0.8"/><circle cx="543" cy="231" r="0.6" fill="#ffffff" opacity="0.8"/><circle cx="680" cy="320" r="1.2" fill="#ffffff" opacity="0.8"/><circle cx="817" cy="49" r="1.7999999999999998" fill="#ffffff" opacity="0.8"/><circle cx="954" cy="138" r="0.6" fill="#ffffff" opacity="0.8"/><circle cx="1091" cy="227" r="1.2" fill="#ffffff" opacity="0.8"/><circle cx="28" cy="316" r="1.7999999999999998" fill="#ffffff" opacity="0.8"/><circle cx="165" cy="45" r="0.6" fill="#ffffff" opacity="0.8"/><circle cx="302" cy="134" r="1.2" fill="#ffffff" opacity="0.8"/><circle cx="439" cy="223" r="1.7999999999999998" fill="#ffffff" opacity="0.8"/><circle cx="576" cy="312" r="0.6" fill="#ffffff" opacity="0.8"/><circle cx="713" cy="41" r="1.2" fill="#ffffff" opacity="0.8"/><circle cx="850" cy="130" r="1.7999999999999998" fill="#ffffff" opacity="0.8"/><circle cx="987" cy="219" r="0.6" fill="#ffffff" opacity="0.8"/><circle cx="1124" cy="308" r="1.2" fill="#ffffff" opacity="0.8"/><circle cx="61" cy="37" r="1.7999999999999998" fill="#ffffff" opacity="0.8"/><circle cx="198" cy="126" r="0.6" fill="#ffffff" opacity="0.8"/><circle cx="335" cy="215" r="1.2" fill="#ffffff" opacity="0.8"/><circle cx="472" cy="304" r="1.7999999999999998" fill="#ffffff" opacity="0.8"/><circle cx="609" cy="33" r="0.6" fill="#ffffff" opacity="0.8"/><circle cx="746" cy="122" r="1.2" fill="#ffffff" opacity="0.8"/><circle cx="883" cy="211" r="1.7999999999999998" fill="#ffffff" opacity="0.8"/><circle cx="1020" cy="300" r="0.6" fill="#ffffff" opacity="0.8"/><circle cx="1157" cy="29" r="1.2" fill="#ffffff" opacity="0.8"/><circle cx="94" cy="118" r="1.7999999999999998" fill="#ffffff" opacity="0.8"/><circle cx="231" cy="207" r="0.6" fill="#ffffff" opacity="0.8"/><circle cx="368" cy="296" r="1.2" fill="#ffffff" opacity="0.8"/><circle cx="505" cy="25" r="1.7999999999999998" fill="#ffffff" opacity="0.8"/><circle cx="642" cy="114" r="0.6" fill="#ffffff" opacity="0.8"/><circle cx="779" cy="203" r="1.2" fill="#ffffff" opacity="0.8"/><circle cx="916" cy="292" r="1.7999999999999998" fill="#ffffff" opacity="0.8"/><circle cx="1053" cy="21" r="0.6" fill="#ffffff" opacity="0.8"/><circle cx="1190" cy="110" r="1.2" fill="#ffffff" opacity="0.8"/><circle cx="127" cy="199" r="1.7999999999999998" fill="#ffffff" opacity="0.8"/><circle cx="264" cy="288" r="0.6" fill="#ffffff" opacity="0.8"/><circle cx="401" cy="17" r="1.2" fill="#ffffff" opacity="0.8"/><circle cx="538" cy="106" r="1.7999999999999998" fill="#ffffff" opacity="0.8"/><circle cx="675" cy="195" r="0.6" fill="#ffffff" opacity="0.8"/><circle cx="812" cy="284" r="1.2" fill="#ffffff" opacity="0.8"/><circle cx="949" cy="13" r="1.7999999999999998" fill="#ffffff" opacity="0.8"/><circle cx="1086" cy="102" r="0.6" fill="#ffffff" opacity="0.8"/><circle cx="23" cy="191" r="1.2" fill="#ffffff" opacity="0.8"/><circle cx="160" cy="280" r="1.7999999999999998" fill="#ffffff" opacity="0.8"/><circle cx="297" cy="9" r="0.6" fill="#ffffff" opacity="0.8"/><circle cx="434" cy="98" r="1.2" fill="#ffffff" opacity="0.8"/><circle cx="571" cy="187" r="1.7999999999999998" fill="#ffffff" opacity="0.8"/><circle cx="708" cy="276" r="0.6" fill="#ffffff" opacity="0.8"/><circle cx="845" cy="5" r="1.2" fill="#ffffff" opacity="0.8"/><circle cx="982" cy="94" r="1.7999999999999998" fill="#ffffff" opacity="0.8"/><circle cx="1119" cy="183" r="0.6" fill="#ffffff" opacity="0.8"/><circle cx="56" cy="272" r="1.2" fill="#ffffff" opacity="0.8"/><circle cx="193" cy="1" r="1.7999999999999998" fill="#ffffff" opacity="0.8"/><path d="M-40 200 q300 -120 640 20 q300 130 640 -30 l0 120 q-340 150 -640 20 q-340 -130 -640 -10 Z" fill="#7ef1c9" opacity="0.35"/><path d="M-40 260 q300 -100 640 40 q300 120 640 -10 l0 80 q-340 120 -640 0 q-340 -120 -640 -20 Z" fill="#b79bff" opacity="0.28"/><path d="M-40 320 q360 -80 700 40 q280 100 580 0 l0 60 q-320 100 -600 10 q-360 -110 -680 -30 Z" fill="#6fb7ff" opacity="0.22"/><path d="M0 560 q300 -60 600 -10 q300 50 600 -20 l0 145 l-1200 0 Z" fill="#0e1730" /><path d="M0 600 q300 -30 600 0 q300 30 600 -10 l0 85 l-1200 0 Z" fill="#0a1226" /></svg>