<svg xmlns="http://www.w3.org/2000/svg" viewBox="0 0 1200 675" preserveAspectRatio="xMidYMid slice" role="img"><defs><radialGradient id="dg" cx="50%" cy="18%" r="90%"><stop offset="0" stop-color="#2f7f74"/><stop offset="0.5" stop-color="#123f42"/><stop offset="1" stop-color="#04141c"/></radialGradient></defs><rect x="0" y="0" width="1200" height="675" rx="0" fill="url(#dg)" /><circle cx="0" cy="0" r="1" fill="#8fe3d6" opacity="0.15"/><circle cx="173" cy="97" r="2" fill="#8fe3d6" opacity="0.15"/><circle cx="346" cy="194" r="3" fill="#8fe3d6" opacity="0.15"/><circle cx="519" cy="291" r="4" fill="#8fe3d6" opacity="0.15"/><circle cx="692" cy="388" r="1" fill="#8fe3d6" opacity="0.15"/><circle cx="865" cy="485" r="2" fill="#8fe3d6" opacity="0.15"/><circle cx="1038" cy="582" r="3" fill="#8fe3d6" opacity="0.15"/><circle cx="11" cy="4" r="4" fill="#8fe3d6" opacity="0.15"/><circle cx="184" cy="101" r="1" fill="#8fe3d6" opacity="0.15"/><circle cx="357" cy="198" r="2" fill="#8fe3d6" opacity="0.15"/><circle cx="530" cy="295" r="3" fill="#8fe3d6" opacity="0.15"/><circle cx="703" cy="392" r="4" fill="#8fe3d6" opacity="0.15"/><circle cx="876" cy="489" r="1" fill="#8fe3d6" opacity="0.15"/><circle cx="1049" cy="586" r="2" fill="#8fe3d6" opacity="0.15"/><circle cx="22" cy="8" r="3" fill="#8fe3d6" opacity="0.15"/><circle cx="195" cy="105" r="4" fill="#8fe3d6" opacity="0.15"/><circle cx="368" cy="202" r="1" fill="#8fe3d6" opacity="0.15"/><circle cx="541" cy="299" r="2" fill="#8fe3d6" opacity="0.15"/><circle cx="714" cy="396" r="3" fill="#8fe3d6" opacity="0.15"/><circle cx="887" cy="493" r="4" fill="#8fe3d6" opacity="0.15"/><circle cx="1060" cy="590" r="1" fill="#8fe3d6" opacity="0.15"/><circle cx="33" cy="12" r="2" fill="#8fe3d6" opacity="0.15"/><circle cx="206" cy="109" r="3" fill="#8fe3d6" opacity="0.15"/><circle cx="379" cy="206" r="4" fill="#8fe3d6" opacity="0.15"/><circle cx="552" cy="303" r="1" fill="#8fe3d6" opacity="0.15"/><circle cx="725" cy="400" r="2" fill="#8fe3d6" opacity="0.15"/><circle cx="898" cy="497" r="3" fill="#8fe3d6" opacity="0.15"/><circle cx="1071" cy="594" r="4" fill="#8fe3d6" opacity="0.15"/><circle cx="44" cy="16" r="1" fill="#8fe3d6" opacity="0.15"/><circle cx="217" cy="113" r="2" fill="#8fe3d6" opacity="0.15"/><circle cx="390" cy="210" r="3" fill="#8fe3d6" opacity="0.15"/><circle cx="563" cy="307" r="4" fill="#8fe3d6" opacity="0.15"/><circle cx="736" cy="404" r="1" fill="#8fe3d6" opacity="0.15"/><circle cx="909" cy="501" r="2" fill="#8fe3d6" opacity="0.15"/><circle cx="1082" cy="598" r="3" fill="#8fe3d6" opacity="0.15"/><circle cx="55" cy="20" r="4" fill="#8fe3d6" opacity="0.15"/><circle cx="228" cy="117" r="1" fill="#8fe3d6" opacity="0.15"/><circle cx="401" cy="214" r="2" fill="#8fe3d6" opacity="0.15"/><circle cx="574" cy="311" r="3" fill="#8fe3d6" opacity="0.15"/><circle cx="747" cy="408" r="4" fill="#8fe3d6" opacity="0.15"/><circle cx="920" cy="505" r="1" fill="#8fe3d6" opacity="0.15"/><circle cx="1093" cy="602" r="2" fill="#8fe3d6" opacity="0.15"/><circle cx="66" cy="24" r="3" fill="#8fe3d6" opacity="0.15"/><circle cx="239" cy="121" r="4" fill="#8fe3d6" opacity="0.15"/><circle cx="412" cy="218" r="1" fill="#8fe3d6" opacity="0.15"/><circle cx="585" cy="315" r="2" fill="#8fe3d6" opacity="0.15"/><circle cx="758" cy="412" r="3" fill="#8fe3d6" opacity="0.15"/><circle cx="931" cy="509" r="4" fill="#8fe3d6" opacity="0.15"/><circle cx="1104" cy="606" r="1" fill="#8fe3d6" opacity="0.15"/><circle cx="77" cy="28" r="2" fill="#8fe3d6" opacity="0.15"/><circle cx="250" cy="125" r="3" fill="#8fe3d6" opacity="0.15"/><circle cx="423" cy="222" r="4" fill="#8fe3d6" opacity="0.15"/><circle cx="596" cy="319" r="1" fill="#8fe3d6" opacity="0.15"/><circle cx="769" cy="416" r="2" fill="#8fe3d6" opacity="0.15"/><circle cx="942" cy="513" r="3" fill="#8fe3d6" opacity="0.15"/><circle cx="1115" cy="610" r="4" fill="#8fe3d6" opacity="0.15"/><circle cx="88" cy="32" r="1" fill="#8fe3d6" opacity="0.15"/><circle cx="261" cy="129" r="2" fill="#8fe3d6" opacity="0.15"/><circle cx="434" cy="226" r="3" fill="#8fe3d6" opacity="0.15"/><circle cx="607" cy="323" r="4" fill="#8fe3d6" opacity="0.15"/><path d="M80 0 q20 340 0 675" fill="none" stroke="#1f6f66" stroke-width="2" opacity="0.12"/><path d="M240 0 q20 340 0 675" fill="none" stroke="#1f6f66" stroke-width="2" opacity="0.12"/><path d="M400 0 q20 340 0 675" fill="none" stroke="#1f6f66" stroke-width="2" opacity="0.12"/><path d="M560 0 q20 340 0 675" fill="none" stroke="#1f6f66" stroke-width="2" opacity="0.12"/><path d="M720 0 q20 340 0 675" fill="none" stroke="#1f6f66" stroke-width="2" opacity="0.12"/><path d="M880 0 q20 340 0 675" fill="none" stroke="#1f6f66" stroke-width="2" opacity="0.12"/><path d="M1040 0 q20 340 0 675" fill="none" stroke="#1f6f66" stroke-width="2" opacity="0.12"/></svg>