<svg xmlns="http://www.w3.org/2000/svg" viewBox="0 0 1200 675" preserveAspectRatio="xMidYMid slice" role="img"><defs><linearGradient id="d" x1="0" y1="0" x2="0" y2="1"><stop offset="0" stop-color="#0e1a3a"/><stop offset="1" stop-color="#14284a"/></linearGradient></defs><rect x="0" y="0" width="1200" height="675" rx="0" fill="url(#d)" /><circle cx="0" cy="0" r="0.6" fill="#ffffff" opacity="0.8"/><circle cx="411" cy="267" r="1.2" fill="#ffffff" opacity="0.8"/><circle cx="822" cy="234" r="1.7999999999999998" fill="#ffffff" opacity="0.8"/><circle cx="33" cy="201" r="0.6" fill="#ffffff" opacity="0.8"/><circle cx="444" cy="168" r="1.2" fill="#ffffff" opacity="0.8"/><circle cx="855" cy="135" r="1.7999999999999998" fill="#ffffff" opacity="0.8"/><circle cx="66" cy="102" r="0.6" fill="#ffffff" opacity="0.8"/><circle cx="477" cy="69" r="1.2" fill="#ffffff" opacity="0.8"/><circle cx="888" cy="36" r="1.7999999999999998" fill="#ffffff" opacity="0.8"/><circle cx="99" cy="3" r="0.6" fill="#ffffff" opacity="0.8"/><circle cx="510" cy="270" r="1.2" fill="#ffffff" opacity="0.8"/><circle cx="921" cy="237" r="1.7999999999999998" fill="#ffffff" opacity="0.8"/><circle cx="132" cy="204" r="0.6" fill="#ffffff" opacity="0.8"/><circle cx="543" cy="171" r="1.2" fill="#ffffff" opacity="0.8"/><circle cx="954" cy="138" r="1.7999999999999998" fill="#ffffff" opacity="0.8"/><circle cx="165" cy="105" r="0.6" fill="#ffffff" opacity="0.8"/><circle cx="576" cy="72" r="1.2" fill="#ffffff" opacity="0.8"/><circle cx="987" cy="39" r="1.7999999999999998" fill="#ffffff" opacity="0.8"/><circle cx="198" cy="6" r="0.6" fill="#ffffff" opacity="0.8"/><circle cx="609" cy="273" r="1.2" fill="#ffffff" opacity="0.8"/><circle cx="1020" cy="240" r="1.7999999999999998" fill="#ffffff" opacity="0.8"/><circle cx="231" cy="207" r="0.6" fill="#ffffff" opacity="0.8"/><circle cx="642" cy="174" r="1.2" fill="#ffffff" opacity="0.8"/><circle cx="1053" cy="141" r="1.7999999999999998" fill="#ffffff" opacity="0.8"/><circle cx="264" cy="108" r="0.6" fill="#ffffff" opacity="0.8"/><circle cx="675" cy="75" r="1.2" fill="#ffffff" opacity="0.8"/><circle cx="1086" cy="42" r="1.7999999999999998" fill="#ffffff" opacity="0.8"/><circle cx="297" cy="9" r="0.6" fill="#ffffff" opacity="0.8"/><circle cx="708" cy="276" r="1.2" fill="#ffffff" opacity="0.8"/><circle cx="1119" cy="243" r="1.7999999999999998" fill="#ffffff" opacity="0.8"/><circle cx="330" cy="210" r="0.6" fill="#ffffff" opacity="0.8"/><circle cx="741" cy="177" r="1.2" fill="#ffffff" opacity="0.8"/><circle cx="1152" cy="144" r="1.7999999999999998" fill="#ffffff" opacity="0.8"/><circle cx="363" cy="111" r="0.6" fill="#ffffff" opacity="0.8"/><circle cx="774" cy="78" r="1.2" fill="#ffffff" opacity="0.8"/><circle cx="1185" cy="45" r="1.7999999999999998" fill="#ffffff" opacity="0.8"/><circle cx="396" cy="12" r="0.6" fill="#ffffff" opacity="0.8"/><circle cx="807" cy="279" r="1.2" fill="#ffffff" opacity="0.8"/><circle cx="18" cy="246" r="1.7999999999999998" fill="#ffffff" opacity="0.8"/><circle cx="429" cy="213" r="0.6" fill="#ffffff" opacity="0.8"/><circle cx="840" cy="180" r="1.2" fill="#ffffff" opacity="0.8"/><circle cx="51" cy="147" r="1.7999999999999998" fill="#ffffff" opacity="0.8"/><circle cx="462" cy="114" r="0.6" fill="#ffffff" opacity="0.8"/><circle cx="873" cy="81" r="1.2" fill="#ffffff" opacity="0.8"/><circle cx="84" cy="48" r="1.7999999999999998" fill="#ffffff" opacity="0.8"/><circle cx="495" cy="15" r="0.6" fill="#ffffff" opacity="0.8"/><circle cx="906" cy="282" r="1.2" fill="#ffffff" opacity="0.8"/><circle cx="117" cy="249" r="1.7999999999999998" fill="#ffffff" opacity="0.8"/><circle cx="528" cy="216" r="0.6" fill="#ffffff" opacity="0.8"/><circle cx="939" cy="183" r="1.2" fill="#ffffff" opacity="0.8"/><path d="M-40 200 q300 -120 640 20 q300 130 640 -30 l0 120 q-340 150 -640 20 q-340 -130 -640 -10 Z" fill="#7ef1c9" opacity="0.18"/><path d="M-40 260 q300 -100 640 40 q300 120 640 -10 l0 80 q-340 120 -640 0 q-340 -120 -640 -20 Z" fill="#b79bff" opacity="0.144"/><path d="M0 470 q600 -40 1200 0 l0 205 l-1200 0 Z" fill="#dfe9f6" /><path d="M0 520 q600 30 1200 0 l0 155 l-1200 0 Z" fill="#c7d6ea" /><path d="M120 500 q18 -26 36 0 q-4 14 -18 14 q-14 0 -18 -14 Z" fill="#5a4a3a" /><path d="M300 500 q18 -26 36 0 q-4 14 -18 14 q-14 0 -18 -14 Z" fill="#5a4a3a" /><path d="M480 500 q18 -26 36 0 q-4 14 -18 14 q-14 0 -18 -14 Z" fill="#5a4a3a" /><path d="M660 500 q18 -26 36 0 q-4 14 -18 14 q-14 0 -18 -14 Z" fill="#5a4a3a" /><path d="M840 500 q18 -26 36 0 q-4 14 -18 14 q-14 0 -18 -14 Z" fill="#5a4a3a" /><path d="M1020 500 q18 -26 36 0 q-4 14 -18 14 q-14 0 -18 -14 Z" fill="#5a4a3a" /></svg>