<svg xmlns="http://www.w3.org/2000/svg" viewBox="0 0 1200 675" preserveAspectRatio="xMidYMid slice" role="img"><defs><linearGradient id="fl" x1="0" y1="0" x2="0" y2="1"><stop offset="0" stop-color="#16324e"/><stop offset="1" stop-color="#0c1c30"/></linearGradient><radialGradient id="win" cx="50%" cy="60%" r="45%"><stop offset="0" stop-color="#8fe3d6" stop-opacity="0.5"/><stop offset="1" stop-color="#0c1c30" stop-opacity="0"/></radialGradient></defs><rect x="0" y="0" width="1200" height="675" rx="0" fill="url(#fl)" /><circle cx="0" cy="0" r="0.6" fill="#ffffff" opacity="0.8"/><circle cx="685" cy="185" r="1.2" fill="#ffffff" opacity="0.8"/><circle cx="170" cy="110" r="1.7999999999999998" fill="#ffffff" opacity="0.8"/><circle cx="855" cy="35" r="0.6" fill="#ffffff" opacity="0.8"/><circle cx="340" cy="220" r="1.2" fill="#ffffff" opacity="0.8"/><circle cx="1025" cy="145" r="1.7999999999999998" fill="#ffffff" opacity="0.8"/><circle cx="510" cy="70" r="0.6" fill="#ffffff" opacity="0.8"/><circle cx="1195" cy="255" r="1.2" fill="#ffffff" opacity="0.8"/><circle cx="680" cy="180" r="1.7999999999999998" fill="#ffffff" opacity="0.8"/><circle cx="165" cy="105" r="0.6" fill="#ffffff" opacity="0.8"/><circle cx="850" cy="30" r="1.2" fill="#ffffff" opacity="0.8"/><circle cx="335" cy="215" r="1.7999999999999998" fill="#ffffff" opacity="0.8"/><circle cx="1020" cy="140" r="0.6" fill="#ffffff" opacity="0.8"/><circle cx="505" cy="65" r="1.2" fill="#ffffff" opacity="0.8"/><circle cx="1190" cy="250" r="1.7999999999999998" fill="#ffffff" opacity="0.8"/><circle cx="675" cy="175" r="0.6" fill="#ffffff" opacity="0.8"/><circle cx="160" cy="100" r="1.2" fill="#ffffff" opacity="0.8"/><circle cx="845" cy="25" r="1.7999999999999998" fill="#ffffff" opacity="0.8"/><circle cx="330" cy="210" r="0.6" fill="#ffffff" opacity="0.8"/><circle cx="1015" cy="135" r="1.2" fill="#ffffff" opacity="0.8"/><circle cx="500" cy="60" r="1.7999999999999998" fill="#ffffff" opacity="0.8"/><circle cx="1185" cy="245" r="0.6" fill="#ffffff" opacity="0.8"/><circle cx="670" cy="170" r="1.2" fill="#ffffff" opacity="0.8"/><circle cx="155" cy="95" r="1.7999999999999998" fill="#ffffff" opacity="0.8"/><circle cx="840" cy="20" r="0.6" fill="#ffffff" opacity="0.8"/><circle cx="325" cy="205" r="1.2" fill="#ffffff" opacity="0.8"/><circle cx="1010" cy="130" r="1.7999999999999998" fill="#ffffff" opacity="0.8"/><circle cx="495" cy="55" r="0.6" fill="#ffffff" opacity="0.8"/><circle cx="1180" cy="240" r="1.2" fill="#ffffff" opacity="0.8"/><circle cx="665" cy="165" r="1.7999999999999998" fill="#ffffff" opacity="0.8"/><circle cx="150" cy="90" r="0.6" fill="#ffffff" opacity="0.8"/><circle cx="835" cy="15" r="1.2" fill="#ffffff" opacity="0.8"/><circle cx="320" cy="200" r="1.7999999999999998" fill="#ffffff" opacity="0.8"/><circle cx="1005" cy="125" r="0.6" fill="#ffffff" opacity="0.8"/><circle cx="490" cy="50" r="1.2" fill="#ffffff" opacity="0.8"/><circle cx="1175" cy="235" r="1.7999999999999998" fill="#ffffff" opacity="0.8"/><circle cx="660" cy="160" r="0.6" fill="#ffffff" opacity="0.8"/><circle cx="145" cy="85" r="1.2" fill="#ffffff" opacity="0.8"/><circle cx="830" cy="10" r="1.7999999999999998" fill="#ffffff" opacity="0.8"/><circle cx="315" cy="195" r="0.6" fill="#ffffff" opacity="0.8"/><rect x="0" y="380" width="1200" height="295" rx="0" fill="#2a4a5e" /><rect x="0" y="380" width="1200" height="295" rx="0" fill="url(#win)" /><line x1="120" y1="400" x2="200" y2="560" stroke="#8fe3d6" stroke-width="2" stroke-linecap="round" opacity="0.4"/><line x1="250" y1="400" x2="330" y2="560" stroke="#8fe3d6" stroke-width="2" stroke-linecap="round" opacity="0.4"/><line x1="380" y1="400" x2="460" y2="560" stroke="#8fe3d6" stroke-width="2" stroke-linecap="round" opacity="0.4"/><line x1="510" y1="400" x2="590" y2="560" stroke="#8fe3d6" stroke-width="2" stroke-linecap="round" opacity="0.4"/><line x1="640" y1="400" x2="720" y2="560" stroke="#8fe3d6" stroke-width="2" stroke-linecap="round" opacity="0.4"/><line x1="770" y1="400" x2="850" y2="560" stroke="#8fe3d6" stroke-width="2" stroke-linecap="round" opacity="0.4"/><line x1="900" y1="400" x2="980" y2="560" stroke="#8fe3d6" stroke-width="2" stroke-linecap="round" opacity="0.4"/><line x1="1030" y1="400" x2="1110" y2="560" stroke="#8fe3d6" stroke-width="2" stroke-linecap="round" opacity="0.4"/><line x1="1160" y1="400" x2="1240" y2="560" stroke="#8fe3d6" stroke-width="2" stroke-linecap="round" opacity="0.4"/></svg>