<svg xmlns="http://www.w3.org/2000/svg" viewBox="0 0 1200 675" preserveAspectRatio="xMidYMid slice" role="img"><defs><linearGradient id="ir" x1="0" y1="0" x2="0" y2="1"><stop offset="0" stop-color="#1a3350"/><stop offset="1" stop-color="#0e2036"/></linearGradient></defs><rect x="0" y="0" width="1200" height="675" rx="0" fill="url(#ir)" /><circle cx="0" cy="0" r="0.6" fill="#ffffff" opacity="0.8"/><circle cx="822" cy="54" r="1.2" fill="#ffffff" opacity="0.8"/><circle cx="444" cy="108" r="1.7999999999999998" fill="#ffffff" opacity="0.8"/><circle cx="66" cy="162" r="0.6" fill="#ffffff" opacity="0.8"/><circle cx="888" cy="216" r="1.2" fill="#ffffff" opacity="0.8"/><circle cx="510" cy="30" r="1.7999999999999998" fill="#ffffff" opacity="0.8"/><circle cx="132" cy="84" r="0.6" fill="#ffffff" opacity="0.8"/><circle cx="954" cy="138" r="1.2" fill="#ffffff" opacity="0.8"/><circle cx="576" cy="192" r="1.7999999999999998" fill="#ffffff" opacity="0.8"/><circle cx="198" cy="6" r="0.6" fill="#ffffff" opacity="0.8"/><circle cx="1020" cy="60" r="1.2" fill="#ffffff" opacity="0.8"/><circle cx="642" cy="114" r="1.7999999999999998" fill="#ffffff" opacity="0.8"/><circle cx="264" cy="168" r="0.6" fill="#ffffff" opacity="0.8"/><circle cx="1086" cy="222" r="1.2" fill="#ffffff" opacity="0.8"/><circle cx="708" cy="36" r="1.7999999999999998" fill="#ffffff" opacity="0.8"/><circle cx="330" cy="90" r="0.6" fill="#ffffff" opacity="0.8"/><circle cx="1152" cy="144" r="1.2" fill="#ffffff" opacity="0.8"/><circle cx="774" cy="198" r="1.7999999999999998" fill="#ffffff" opacity="0.8"/><circle cx="396" cy="12" r="0.6" fill="#ffffff" opacity="0.8"/><circle cx="18" cy="66" r="1.2" fill="#ffffff" opacity="0.8"/><circle cx="840" cy="120" r="1.7999999999999998" fill="#ffffff" opacity="0.8"/><circle cx="462" cy="174" r="0.6" fill="#ffffff" opacity="0.8"/><circle cx="84" cy="228" r="1.2" fill="#ffffff" opacity="0.8"/><circle cx="906" cy="42" r="1.7999999999999998" fill="#ffffff" opacity="0.8"/><circle cx="528" cy="96" r="0.6" fill="#ffffff" opacity="0.8"/><circle cx="150" cy="150" r="1.2" fill="#ffffff" opacity="0.8"/><circle cx="972" cy="204" r="1.7999999999999998" fill="#ffffff" opacity="0.8"/><circle cx="594" cy="18" r="0.6" fill="#ffffff" opacity="0.8"/><circle cx="216" cy="72" r="1.2" fill="#ffffff" opacity="0.8"/><circle cx="1038" cy="126" r="1.7999999999999998" fill="#ffffff" opacity="0.8"/><circle cx="660" cy="180" r="0.6" fill="#ffffff" opacity="0.8"/><circle cx="282" cy="234" r="1.2" fill="#ffffff" opacity="0.8"/><circle cx="1104" cy="48" r="1.7999999999999998" fill="#ffffff" opacity="0.8"/><circle cx="726" cy="102" r="0.6" fill="#ffffff" opacity="0.8"/><circle cx="348" cy="156" r="1.2" fill="#ffffff" opacity="0.8"/><circle cx="1170" cy="210" r="1.7999999999999998" fill="#ffffff" opacity="0.8"/><circle cx="792" cy="24" r="0.6" fill="#ffffff" opacity="0.8"/><circle cx="414" cy="78" r="1.2" fill="#ffffff" opacity="0.8"/><circle cx="36" cy="132" r="1.7999999999999998" fill="#ffffff" opacity="0.8"/><circle cx="858" cy="186" r="0.6" fill="#ffffff" opacity="0.8"/><path d="M0 420 L280 300 L520 440 L760 320 L1040 460 L1200 380 L1200 675 L0 675 Z" fill="#26456a" /><path d="M0 520 q600 -30 1200 20 l0 135 l-1200 0 Z" fill="#dfe9f6" opacity="0.9"/></svg>