<svg xmlns="http://www.w3.org/2000/svg" viewBox="0 0 1200 675" preserveAspectRatio="xMidYMid slice" role="img"><defs><linearGradient id="sky2" x1="0" y1="0" x2="0" y2="1"><stop offset="0" stop-color="#5b6f92"/><stop offset="1" stop-color="#9fb0c9"/></linearGradient><linearGradient id="water" x1="0" y1="0" x2="0" y2="1"><stop offset="0" stop-color="#3f6a86"/><stop offset="1" stop-color="#1d3a4e"/></linearGradient></defs><rect x="0" y="0" width="1200" height="340" rx="0" fill="url(#sky2)" /><circle cx="980" cy="120" r="60" fill="#e9d9b0" opacity="0.7"/><rect x="0" y="300" width="1200" height="375" rx="0" fill="url(#water)" /><path d="M0 330 q300 -14 600 0 t600 0 l0 30 l-1200 0 Z" fill="#4a6f8a" opacity="0.4"/><path d="M0 380 q300 -14 600 0 t600 0 l0 30 l-1200 0 Z" fill="#4a6f8a" opacity="0.4"/><path d="M0 440 q300 -14 600 0 t600 0 l0 30 l-1200 0 Z" fill="#4a6f8a" opacity="0.4"/><path d="M0 520 q300 -14 600 0 t600 0 l0 30 l-1200 0 Z" fill="#4a6f8a" opacity="0.4"/><path d="M120 470 q80 -20 160 4 q40 30 -30 40 q-120 8 -150 -14 q-20 -20 20 -30 Z" fill="#eef4ff" /><path d="M820 520 q120 -24 200 8 q30 28 -50 34 q-150 6 -170 -18 q-10 -18 20 -24 Z" fill="#dce8f4" /><path d="M520 600 q90 -16 150 6 q20 22 -40 26 q-110 4 -130 -14 Z" fill="#eef4ff" /></svg>