<svg xmlns="http://www.w3.org/2000/svg" viewBox="0 0 1200 675" preserveAspectRatio="xMidYMid slice" role="img"><defs><linearGradient id="sr" x1="0" y1="0" x2="0" y2="1"><stop offset="0" stop-color="#0a0e2a"/><stop offset="1" stop-color="#141d44"/></linearGradient></defs><rect x="0" y="0" width="1200" height="675" rx="0" fill="url(#sr)" /><circle cx="0" cy="0" r="0.6" fill="#ffffff" opacity="0.8"/><circle cx="959" cy="623" r="1.2" fill="#ffffff" opacity="0.8"/><circle cx="718" cy="571" r="1.7999999999999998" fill="#ffffff" opacity="0.8"/><circle cx="477" cy="519" r="0.6" fill="#ffffff" opacity="0.8"/><circle cx="236" cy="467" r="1.2" fill="#ffffff" opacity="0.8"/><circle cx="1195" cy="415" r="1.7999999999999998" fill="#ffffff" opacity="0.8"/><circle cx="954" cy="363" r="0.6" fill="#ffffff" opacity="0.8"/><circle cx="713" cy="311" r="1.2" fill="#ffffff" opacity="0.8"/><circle cx="472" cy="259" r="1.7999999999999998" fill="#ffffff" opacity="0.8"/><circle cx="231" cy="207" r="0.6" fill="#ffffff" opacity="0.8"/><circle cx="1190" cy="155" r="1.2" fill="#ffffff" opacity="0.8"/><circle cx="949" cy="103" r="1.7999999999999998" fill="#ffffff" opacity="0.8"/><circle cx="708" cy="51" r="0.6" fill="#ffffff" opacity="0.8"/><circle cx="467" cy="674" r="1.2" fill="#ffffff" opacity="0.8"/><circle cx="226" cy="622" r="1.7999999999999998" fill="#ffffff" opacity="0.8"/><circle cx="1185" cy="570" r="0.6" fill="#ffffff" opacity="0.8"/><circle cx="944" cy="518" r="1.2" fill="#ffffff" opacity="0.8"/><circle cx="703" cy="466" r="1.7999999999999998" fill="#ffffff" opacity="0.8"/><circle cx="462" cy="414" r="0.6" fill="#ffffff" opacity="0.8"/><circle cx="221" cy="362" r="1.2" fill="#ffffff" opacity="0.8"/><circle cx="1180" cy="310" r="1.7999999999999998" fill="#ffffff" opacity="0.8"/><circle cx="939" cy="258" r="0.6" fill="#ffffff" opacity="0.8"/><circle cx="698" cy="206" r="1.2" fill="#ffffff" opacity="0.8"/><circle cx="457" cy="154" r="1.7999999999999998" fill="#ffffff" opacity="0.8"/><circle cx="216" cy="102" r="0.6" fill="#ffffff" opacity="0.8"/><circle cx="1175" cy="50" r="1.2" fill="#ffffff" opacity="0.8"/><circle cx="934" cy="673" r="1.7999999999999998" fill="#ffffff" opacity="0.8"/><circle cx="693" cy="621" r="0.6" fill="#ffffff" opacity="0.8"/><circle cx="452" cy="569" r="1.2" fill="#ffffff" opacity="0.8"/><circle cx="211" cy="517" r="1.7999999999999998" fill="#ffffff" opacity="0.8"/><circle cx="1170" cy="465" r="0.6" fill="#ffffff" opacity="0.8"/><circle cx="929" cy="413" r="1.2" fill="#ffffff" opacity="0.8"/><circle cx="688" cy="361" r="1.7999999999999998" fill="#ffffff" opacity="0.8"/><circle cx="447" cy="309" r="0.6" fill="#ffffff" opacity="0.8"/><circle cx="206" cy="257" r="1.2" fill="#ffffff" opacity="0.8"/><circle cx="1165" cy="205" r="1.7999999999999998" fill="#ffffff" opacity="0.8"/><circle cx="924" cy="153" r="0.6" fill="#ffffff" opacity="0.8"/><circle cx="683" cy="101" r="1.2" fill="#ffffff" opacity="0.8"/><circle cx="442" cy="49" r="1.7999999999999998" fill="#ffffff" opacity="0.8"/><circle cx="201" cy="672" r="0.6" fill="#ffffff" opacity="0.8"/><circle cx="1160" cy="620" r="1.2" fill="#ffffff" opacity="0.8"/><circle cx="919" cy="568" r="1.7999999999999998" fill="#ffffff" opacity="0.8"/><circle cx="678" cy="516" r="0.6" fill="#ffffff" opacity="0.8"/><circle cx="437" cy="464" r="1.2" fill="#ffffff" opacity="0.8"/><circle cx="196" cy="412" r="1.7999999999999998" fill="#ffffff" opacity="0.8"/><circle cx="1155" cy="360" r="0.6" fill="#ffffff" opacity="0.8"/><circle cx="914" cy="308" r="1.2" fill="#ffffff" opacity="0.8"/><circle cx="673" cy="256" r="1.7999999999999998" fill="#ffffff" opacity="0.8"/><circle cx="432" cy="204" r="0.6" fill="#ffffff" opacity="0.8"/><circle cx="191" cy="152" r="1.2" fill="#ffffff" opacity="0.8"/><circle cx="1150" cy="100" r="1.7999999999999998" fill="#ffffff" opacity="0.8"/><circle cx="909" cy="48" r="0.6" fill="#ffffff" opacity="0.8"/><circle cx="668" cy="671" r="1.2" fill="#ffffff" opacity="0.8"/><circle cx="427" cy="619" r="1.7999999999999998" fill="#ffffff" opacity="0.8"/><circle cx="186" cy="567" r="0.6" fill="#ffffff" opacity="0.8"/><circle cx="1145" cy="515" r="1.2" fill="#ffffff" opacity="0.8"/><circle cx="904" cy="463" r="1.7999999999999998" fill="#ffffff" opacity="0.8"/><circle cx="663" cy="411" r="0.6" fill="#ffffff" opacity="0.8"/><circle cx="422" cy="359" r="1.2" fill="#ffffff" opacity="0.8"/><circle cx="181" cy="307" r="1.7999999999999998" fill="#ffffff" opacity="0.8"/><circle cx="1140" cy="255" r="0.6" fill="#ffffff" opacity="0.8"/><circle cx="899" cy="203" r="1.2" fill="#ffffff" opacity="0.8"/><circle cx="658" cy="151" r="1.7999999999999998" fill="#ffffff" opacity="0.8"/><circle cx="417" cy="99" r="0.6" fill="#ffffff" opacity="0.8"/><circle cx="176" cy="47" r="1.2" fill="#ffffff" opacity="0.8"/><circle cx="1135" cy="670" r="1.7999999999999998" fill="#ffffff" opacity="0.8"/><circle cx="894" cy="618" r="0.6" fill="#ffffff" opacity="0.8"/><circle cx="653" cy="566" r="1.2" fill="#ffffff" opacity="0.8"/><circle cx="412" cy="514" r="1.7999999999999998" fill="#ffffff" opacity="0.8"/><circle cx="171" cy="462" r="0.6" fill="#ffffff" opacity="0.8"/><circle cx="1130" cy="410" r="1.2" fill="#ffffff" opacity="0.8"/><circle cx="889" cy="358" r="1.7999999999999998" fill="#ffffff" opacity="0.8"/><circle cx="648" cy="306" r="0.6" fill="#ffffff" opacity="0.8"/><circle cx="407" cy="254" r="1.2" fill="#ffffff" opacity="0.8"/><circle cx="166" cy="202" r="1.7999999999999998" fill="#ffffff" opacity="0.8"/><circle cx="1125" cy="150" r="0.6" fill="#ffffff" opacity="0.8"/><circle cx="884" cy="98" r="1.2" fill="#ffffff" opacity="0.8"/><circle cx="643" cy="46" r="1.7999999999999998" fill="#ffffff" opacity="0.8"/><circle cx="402" cy="669" r="0.6" fill="#ffffff" opacity="0.8"/><circle cx="161" cy="617" r="1.2" fill="#ffffff" opacity="0.8"/><circle cx="1120" cy="565" r="1.7999999999999998" fill="#ffffff" opacity="0.8"/><circle cx="879" cy="513" r="0.6" fill="#ffffff" opacity="0.8"/><circle cx="638" cy="461" r="1.2" fill="#ffffff" opacity="0.8"/><circle cx="397" cy="409" r="1.7999999999999998" fill="#ffffff" opacity="0.8"/><circle cx="156" cy="357" r="0.6" fill="#ffffff" opacity="0.8"/><circle cx="1115" cy="305" r="1.2" fill="#ffffff" opacity="0.8"/><circle cx="874" cy="253" r="1.7999999999999998" fill="#ffffff" opacity="0.8"/><circle cx="633" cy="201" r="0.6" fill="#ffffff" opacity="0.8"/><circle cx="392" cy="149" r="1.2" fill="#ffffff" opacity="0.8"/><circle cx="151" cy="97" r="1.7999999999999998" fill="#ffffff" opacity="0.8"/><circle cx="1110" cy="45" r="0.6" fill="#ffffff" opacity="0.8"/><circle cx="869" cy="668" r="1.2" fill="#ffffff" opacity="0.8"/><circle cx="628" cy="616" r="1.7999999999999998" fill="#ffffff" opacity="0.8"/><circle cx="387" cy="564" r="0.6" fill="#ffffff" opacity="0.8"/><circle cx="146" cy="512" r="1.2" fill="#ffffff" opacity="0.8"/><circle cx="1105" cy="460" r="1.7999999999999998" fill="#ffffff" opacity="0.8"/><circle cx="864" cy="408" r="0.6" fill="#ffffff" opacity="0.8"/><circle cx="623" cy="356" r="1.2" fill="#ffffff" opacity="0.8"/><circle cx="382" cy="304" r="1.7999999999999998" fill="#ffffff" opacity="0.8"/><circle cx="141" cy="252" r="0.6" fill="#ffffff" opacity="0.8"/><circle cx="1100" cy="200" r="1.2" fill="#ffffff" opacity="0.8"/><circle cx="859" cy="148" r="1.7999999999999998" fill="#ffffff" opacity="0.8"/><circle cx="618" cy="96" r="0.6" fill="#ffffff" opacity="0.8"/><circle cx="377" cy="44" r="1.2" fill="#ffffff" opacity="0.8"/><circle cx="136" cy="667" r="1.7999999999999998" fill="#ffffff" opacity="0.8"/><circle cx="1095" cy="615" r="0.6" fill="#ffffff" opacity="0.8"/><circle cx="854" cy="563" r="1.2" fill="#ffffff" opacity="0.8"/><circle cx="613" cy="511" r="1.7999999999999998" fill="#ffffff" opacity="0.8"/><circle cx="372" cy="459" r="0.6" fill="#ffffff" opacity="0.8"/><circle cx="131" cy="407" r="1.2" fill="#ffffff" opacity="0.8"/><circle cx="1090" cy="355" r="1.7999999999999998" fill="#ffffff" opacity="0.8"/><circle cx="849" cy="303" r="0.6" fill="#ffffff" opacity="0.8"/><circle cx="608" cy="251" r="1.2" fill="#ffffff" opacity="0.8"/><circle cx="367" cy="199" r="1.7999999999999998" fill="#ffffff" opacity="0.8"/><circle cx="126" cy="147" r="0.6" fill="#ffffff" opacity="0.8"/><circle cx="1085" cy="95" r="1.2" fill="#ffffff" opacity="0.8"/><circle cx="844" cy="43" r="1.7999999999999998" fill="#ffffff" opacity="0.8"/><circle cx="603" cy="666" r="0.6" fill="#ffffff" opacity="0.8"/><circle cx="362" cy="614" r="1.2" fill="#ffffff" opacity="0.8"/><circle cx="121" cy="562" r="1.7999999999999998" fill="#ffffff" opacity="0.8"/><circle cx="1080" cy="510" r="0.6" fill="#ffffff" opacity="0.8"/><circle cx="839" cy="458" r="1.2" fill="#ffffff" opacity="0.8"/><circle cx="598" cy="406" r="1.7999999999999998" fill="#ffffff" opacity="0.8"/><circle cx="357" cy="354" r="0.6" fill="#ffffff" opacity="0.8"/><circle cx="116" cy="302" r="1.2" fill="#ffffff" opacity="0.8"/><circle cx="1075" cy="250" r="1.7999999999999998" fill="#ffffff" opacity="0.8"/><circle cx="834" cy="198" r="0.6" fill="#ffffff" opacity="0.8"/><circle cx="593" cy="146" r="1.2" fill="#ffffff" opacity="0.8"/><circle cx="352" cy="94" r="1.7999999999999998" fill="#ffffff" opacity="0.8"/><circle cx="111" cy="42" r="0.6" fill="#ffffff" opacity="0.8"/><path d="M-40 200 q300 -120 640 20 q300 130 640 -30 l0 120 q-340 150 -640 20 q-340 -130 -640 -10 Z" fill="#7ef1c9" opacity="0.26"/><path d="M-40 260 q300 -100 640 40 q300 120 640 -10 l0 80 q-340 120 -640 0 q-340 -120 -640 -20 Z" fill="#b79bff" opacity="0.20800000000000002"/><path d="M400 675 L520 200 L680 200 L800 675 Z" fill="#8fe3d6" opacity="0.18"/><circle cx="600" cy="640" r="3" fill="#ffd479" opacity="0.8"/><circle cx="603" cy="610" r="3" fill="#ffd479" opacity="0.8"/><circle cx="594" cy="580" r="3" fill="#ffd479" opacity="0.8"/><circle cx="609" cy="550" r="3" fill="#ffd479" opacity="0.8"/><circle cx="588" cy="520" r="3" fill="#ffd479" opacity="0.8"/><circle cx="615" cy="490" r="3" fill="#ffd479" opacity="0.8"/><circle cx="582" cy="460" r="3" fill="#ffd479" opacity="0.8"/><circle cx="621" cy="430" r="3" fill="#ffd479" opacity="0.8"/><circle cx="576" cy="400" r="3" fill="#ffd479" opacity="0.8"/><circle cx="627" cy="370" r="3" fill="#ffd479" opacity="0.8"/><circle cx="570" cy="340" r="3" fill="#ffd479" opacity="0.8"/><circle cx="633" cy="310" r="3" fill="#ffd479" opacity="0.8"/><circle cx="564" cy="280" r="3" fill="#ffd479" opacity="0.8"/><circle cx="639" cy="250" r="3" fill="#ffd479" opacity="0.8"/><circle cx="558" cy="220" r="3" fill="#ffd479" opacity="0.8"/></svg>