<svg xmlns="http://www.w3.org/2000/svg" viewBox="0 0 1200 675" preserveAspectRatio="xMidYMid slice" role="img"><defs><linearGradient id="sm" x1="0" y1="0" x2="0" y2="1"><stop offset="0" stop-color="#10163a"/><stop offset="1" stop-color="#1c2650"/></linearGradient></defs><rect x="0" y="0" width="1200" height="675" rx="0" fill="url(#sm)" /><circle cx="0" cy="0" r="0.6" fill="#ffffff" opacity="0.8"/><circle cx="1096" cy="37" r="1.2" fill="#ffffff" opacity="0.8"/><circle cx="992" cy="74" r="1.7999999999999998" fill="#ffffff" opacity="0.8"/><circle cx="888" cy="111" r="0.6" fill="#ffffff" opacity="0.8"/><circle cx="784" cy="148" r="1.2" fill="#ffffff" opacity="0.8"/><circle cx="680" cy="185" r="1.7999999999999998" fill="#ffffff" opacity="0.8"/><circle cx="576" cy="222" r="0.6" fill="#ffffff" opacity="0.8"/><circle cx="472" cy="259" r="1.2" fill="#ffffff" opacity="0.8"/><circle cx="368" cy="296" r="1.7999999999999998" fill="#ffffff" opacity="0.8"/><circle cx="264" cy="333" r="0.6" fill="#ffffff" opacity="0.8"/><circle cx="160" cy="370" r="1.2" fill="#ffffff" opacity="0.8"/><circle cx="56" cy="407" r="1.7999999999999998" fill="#ffffff" opacity="0.8"/><circle cx="1152" cy="444" r="0.6" fill="#ffffff" opacity="0.8"/><circle cx="1048" cy="481" r="1.2" fill="#ffffff" opacity="0.8"/><circle cx="944" cy="518" r="1.7999999999999998" fill="#ffffff" opacity="0.8"/><circle cx="840" cy="555" r="0.6" fill="#ffffff" opacity="0.8"/><circle cx="736" cy="592" r="1.2" fill="#ffffff" opacity="0.8"/><circle cx="632" cy="629" r="1.7999999999999998" fill="#ffffff" opacity="0.8"/><circle cx="528" cy="666" r="0.6" fill="#ffffff" opacity="0.8"/><circle cx="424" cy="28" r="1.2" fill="#ffffff" opacity="0.8"/><circle cx="320" cy="65" r="1.7999999999999998" fill="#ffffff" opacity="0.8"/><circle cx="216" cy="102" r="0.6" fill="#ffffff" opacity="0.8"/><circle cx="112" cy="139" r="1.2" fill="#ffffff" opacity="0.8"/><circle cx="8" cy="176" r="1.7999999999999998" fill="#ffffff" opacity="0.8"/><circle cx="1104" cy="213" r="0.6" fill="#ffffff" opacity="0.8"/><circle cx="1000" cy="250" r="1.2" fill="#ffffff" opacity="0.8"/><circle cx="896" cy="287" r="1.7999999999999998" fill="#ffffff" opacity="0.8"/><circle cx="792" cy="324" r="0.6" fill="#ffffff" opacity="0.8"/><circle cx="688" cy="361" r="1.2" fill="#ffffff" opacity="0.8"/><circle cx="584" cy="398" r="1.7999999999999998" fill="#ffffff" opacity="0.8"/><circle cx="480" cy="435" r="0.6" fill="#ffffff" opacity="0.8"/><circle cx="376" cy="472" r="1.2" fill="#ffffff" opacity="0.8"/><circle cx="272" cy="509" r="1.7999999999999998" fill="#ffffff" opacity="0.8"/><circle cx="168" cy="546" r="0.6" fill="#ffffff" opacity="0.8"/><circle cx="64" cy="583" r="1.2" fill="#ffffff" opacity="0.8"/><circle cx="1160" cy="620" r="1.7999999999999998" fill="#ffffff" opacity="0.8"/><circle cx="1056" cy="657" r="0.6" fill="#ffffff" opacity="0.8"/><circle cx="952" cy="19" r="1.2" fill="#ffffff" opacity="0.8"/><circle cx="848" cy="56" r="1.7999999999999998" fill="#ffffff" opacity="0.8"/><circle cx="744" cy="93" r="0.6" fill="#ffffff" opacity="0.8"/><circle cx="640" cy="130" r="1.2" fill="#ffffff" opacity="0.8"/><circle cx="536" cy="167" r="1.7999999999999998" fill="#ffffff" opacity="0.8"/><circle cx="432" cy="204" r="0.6" fill="#ffffff" opacity="0.8"/><circle cx="328" cy="241" r="1.2" fill="#ffffff" opacity="0.8"/><circle cx="224" cy="278" r="1.7999999999999998" fill="#ffffff" opacity="0.8"/><circle cx="120" cy="315" r="0.6" fill="#ffffff" opacity="0.8"/><circle cx="16" cy="352" r="1.2" fill="#ffffff" opacity="0.8"/><circle cx="1112" cy="389" r="1.7999999999999998" fill="#ffffff" opacity="0.8"/><circle cx="1008" cy="426" r="0.6" fill="#ffffff" opacity="0.8"/><circle cx="904" cy="463" r="1.2" fill="#ffffff" opacity="0.8"/><circle cx="800" cy="500" r="1.7999999999999998" fill="#ffffff" opacity="0.8"/><circle cx="696" cy="537" r="0.6" fill="#ffffff" opacity="0.8"/><circle cx="592" cy="574" r="1.2" fill="#ffffff" opacity="0.8"/><circle cx="488" cy="611" r="1.7999999999999998" fill="#ffffff" opacity="0.8"/><circle cx="384" cy="648" r="0.6" fill="#ffffff" opacity="0.8"/><circle cx="280" cy="10" r="1.2" fill="#ffffff" opacity="0.8"/><circle cx="176" cy="47" r="1.7999999999999998" fill="#ffffff" opacity="0.8"/><circle cx="72" cy="84" r="0.6" fill="#ffffff" opacity="0.8"/><circle cx="1168" cy="121" r="1.2" fill="#ffffff" opacity="0.8"/><circle cx="1064" cy="158" r="1.7999999999999998" fill="#ffffff" opacity="0.8"/><circle cx="960" cy="195" r="0.6" fill="#ffffff" opacity="0.8"/><circle cx="856" cy="232" r="1.2" fill="#ffffff" opacity="0.8"/><circle cx="752" cy="269" r="1.7999999999999998" fill="#ffffff" opacity="0.8"/><circle cx="648" cy="306" r="0.6" fill="#ffffff" opacity="0.8"/><circle cx="544" cy="343" r="1.2" fill="#ffffff" opacity="0.8"/><circle cx="440" cy="380" r="1.7999999999999998" fill="#ffffff" opacity="0.8"/><circle cx="336" cy="417" r="0.6" fill="#ffffff" opacity="0.8"/><circle cx="232" cy="454" r="1.2" fill="#ffffff" opacity="0.8"/><circle cx="128" cy="491" r="1.7999999999999998" fill="#ffffff" opacity="0.8"/><circle cx="24" cy="528" r="0.6" fill="#ffffff" opacity="0.8"/><circle cx="1120" cy="565" r="1.2" fill="#ffffff" opacity="0.8"/><circle cx="1016" cy="602" r="1.7999999999999998" fill="#ffffff" opacity="0.8"/><circle cx="912" cy="639" r="0.6" fill="#ffffff" opacity="0.8"/><circle cx="808" cy="1" r="1.2" fill="#ffffff" opacity="0.8"/><circle cx="704" cy="38" r="1.7999999999999998" fill="#ffffff" opacity="0.8"/><circle cx="600" cy="75" r="0.6" fill="#ffffff" opacity="0.8"/><circle cx="496" cy="112" r="1.2" fill="#ffffff" opacity="0.8"/><circle cx="392" cy="149" r="1.7999999999999998" fill="#ffffff" opacity="0.8"/><circle cx="288" cy="186" r="0.6" fill="#ffffff" opacity="0.8"/><circle cx="184" cy="223" r="1.2" fill="#ffffff" opacity="0.8"/><circle cx="80" cy="260" r="1.7999999999999998" fill="#ffffff" opacity="0.8"/><circle cx="1176" cy="297" r="0.6" fill="#ffffff" opacity="0.8"/><circle cx="1072" cy="334" r="1.2" fill="#ffffff" opacity="0.8"/><circle cx="968" cy="371" r="1.7999999999999998" fill="#ffffff" opacity="0.8"/><circle cx="864" cy="408" r="0.6" fill="#ffffff" opacity="0.8"/><circle cx="760" cy="445" r="1.2" fill="#ffffff" opacity="0.8"/><circle cx="656" cy="482" r="1.7999999999999998" fill="#ffffff" opacity="0.8"/><circle cx="552" cy="519" r="0.6" fill="#ffffff" opacity="0.8"/><circle cx="448" cy="556" r="1.2" fill="#ffffff" opacity="0.8"/><circle cx="344" cy="593" r="1.7999999999999998" fill="#ffffff" opacity="0.8"/><circle cx="860" cy="220" r="120" fill="#f3ece0" opacity="0.9"/><circle cx="820" cy="190" r="16" fill="#9fb0d6" opacity="0.4"/><circle cx="900" cy="260" r="12" fill="#9fb0d6" opacity="0.4"/><circle cx="860" cy="220" r="150" fill="#6fb7ff" opacity="0.10"/></svg>