<svg xmlns="http://www.w3.org/2000/svg" viewBox="0 0 1200 675" preserveAspectRatio="xMidYMid slice" role="img"><defs><linearGradient id="ss" x1="0" y1="0" x2="0" y2="1"><stop offset="0" stop-color="#141232"/><stop offset="0.7" stop-color="#3a2a3e"/><stop offset="1" stop-color="#5a3a2e"/></linearGradient></defs><rect x="0" y="0" width="1200" height="675" rx="0" fill="url(#ss)" /><circle cx="0" cy="0" r="0.6" fill="#ffffff" opacity="0.8"/><circle cx="33" cy="201" r="1.2" fill="#ffffff" opacity="0.8"/><circle cx="66" cy="102" r="1.7999999999999998" fill="#ffffff" opacity="0.8"/><circle cx="99" cy="3" r="0.6" fill="#ffffff" opacity="0.8"/><circle cx="132" cy="204" r="1.2" fill="#ffffff" opacity="0.8"/><circle cx="165" cy="105" r="1.7999999999999998" fill="#ffffff" opacity="0.8"/><circle cx="198" cy="6" r="0.6" fill="#ffffff" opacity="0.8"/><circle cx="231" cy="207" r="1.2" fill="#ffffff" opacity="0.8"/><circle cx="264" cy="108" r="1.7999999999999998" fill="#ffffff" opacity="0.8"/><circle cx="297" cy="9" r="0.6" fill="#ffffff" opacity="0.8"/><circle cx="330" cy="210" r="1.2" fill="#ffffff" opacity="0.8"/><circle cx="363" cy="111" r="1.7999999999999998" fill="#ffffff" opacity="0.8"/><circle cx="396" cy="12" r="0.6" fill="#ffffff" opacity="0.8"/><circle cx="429" cy="213" r="1.2" fill="#ffffff" opacity="0.8"/><circle cx="462" cy="114" r="1.7999999999999998" fill="#ffffff" opacity="0.8"/><circle cx="495" cy="15" r="0.6" fill="#ffffff" opacity="0.8"/><circle cx="528" cy="216" r="1.2" fill="#ffffff" opacity="0.8"/><circle cx="561" cy="117" r="1.7999999999999998" fill="#ffffff" opacity="0.8"/><circle cx="594" cy="18" r="0.6" fill="#ffffff" opacity="0.8"/><circle cx="627" cy="219" r="1.2" fill="#ffffff" opacity="0.8"/><circle cx="660" cy="120" r="1.7999999999999998" fill="#ffffff" opacity="0.8"/><circle cx="693" cy="21" r="0.6" fill="#ffffff" opacity="0.8"/><circle cx="726" cy="222" r="1.2" fill="#ffffff" opacity="0.8"/><circle cx="759" cy="123" r="1.7999999999999998" fill="#ffffff" opacity="0.8"/><circle cx="792" cy="24" r="0.6" fill="#ffffff" opacity="0.8"/><circle cx="825" cy="225" r="1.2" fill="#ffffff" opacity="0.8"/><circle cx="858" cy="126" r="1.7999999999999998" fill="#ffffff" opacity="0.8"/><circle cx="891" cy="27" r="0.6" fill="#ffffff" opacity="0.8"/><circle cx="924" cy="228" r="1.2" fill="#ffffff" opacity="0.8"/><circle cx="957" cy="129" r="1.7999999999999998" fill="#ffffff" opacity="0.8"/><circle cx="990" cy="30" r="0.6" fill="#ffffff" opacity="0.8"/><circle cx="1023" cy="231" r="1.2" fill="#ffffff" opacity="0.8"/><circle cx="1056" cy="132" r="1.7999999999999998" fill="#ffffff" opacity="0.8"/><circle cx="1089" cy="33" r="0.6" fill="#ffffff" opacity="0.8"/><circle cx="1122" cy="234" r="1.2" fill="#ffffff" opacity="0.8"/><circle cx="1155" cy="135" r="1.7999999999999998" fill="#ffffff" opacity="0.8"/><circle cx="1188" cy="36" r="0.6" fill="#ffffff" opacity="0.8"/><circle cx="21" cy="237" r="1.2" fill="#ffffff" opacity="0.8"/><circle cx="54" cy="138" r="1.7999999999999998" fill="#ffffff" opacity="0.8"/><circle cx="87" cy="39" r="0.6" fill="#ffffff" opacity="0.8"/><circle cx="120" cy="240" r="1.2" fill="#ffffff" opacity="0.8"/><circle cx="153" cy="141" r="1.7999999999999998" fill="#ffffff" opacity="0.8"/><circle cx="186" cy="42" r="0.6" fill="#ffffff" opacity="0.8"/><circle cx="219" cy="243" r="1.2" fill="#ffffff" opacity="0.8"/><circle cx="252" cy="144" r="1.7999999999999998" fill="#ffffff" opacity="0.8"/><circle cx="285" cy="45" r="0.6" fill="#ffffff" opacity="0.8"/><circle cx="318" cy="246" r="1.2" fill="#ffffff" opacity="0.8"/><circle cx="351" cy="147" r="1.7999999999999998" fill="#ffffff" opacity="0.8"/><circle cx="384" cy="48" r="0.6" fill="#ffffff" opacity="0.8"/><circle cx="417" cy="249" r="1.2" fill="#ffffff" opacity="0.8"/><circle cx="600" cy="380" r="150" fill="#ff9f5a" opacity="0.25"/><path d="M450 380 q150 -80 300 0 q-30 60 -150 60 q-120 0 -150 -60 Z" fill="#ffd479" opacity="0.5"/></svg>