<svg xmlns="http://www.w3.org/2000/svg" viewBox="0 0 1200 675" preserveAspectRatio="xMidYMid slice" role="img"><defs><linearGradient id="sd" x1="0" y1="0" x2="0" y2="1"><stop offset="0" stop-color="#101a3e"/><stop offset="0.55" stop-color="#5a4a6a"/><stop offset="0.8" stop-color="#e08a5a"/><stop offset="1" stop-color="#ffcf7a"/></linearGradient></defs><rect x="0" y="0" width="1200" height="675" rx="0" fill="url(#sd)" /><circle cx="0" cy="0" r="0.6" fill="#ffffff" opacity="0.8"/><circle cx="170" cy="10" r="1.2" fill="#ffffff" opacity="0.8"/><circle cx="340" cy="20" r="1.7999999999999998" fill="#ffffff" opacity="0.8"/><circle cx="510" cy="30" r="0.6" fill="#ffffff" opacity="0.8"/><circle cx="680" cy="40" r="1.2" fill="#ffffff" opacity="0.8"/><circle cx="850" cy="50" r="1.7999999999999998" fill="#ffffff" opacity="0.8"/><circle cx="1020" cy="60" r="0.6" fill="#ffffff" opacity="0.8"/><circle cx="1190" cy="70" r="1.2" fill="#ffffff" opacity="0.8"/><circle cx="160" cy="80" r="1.7999999999999998" fill="#ffffff" opacity="0.8"/><circle cx="330" cy="90" r="0.6" fill="#ffffff" opacity="0.8"/><circle cx="500" cy="100" r="1.2" fill="#ffffff" opacity="0.8"/><circle cx="670" cy="110" r="1.7999999999999998" fill="#ffffff" opacity="0.8"/><circle cx="840" cy="120" r="0.6" fill="#ffffff" opacity="0.8"/><circle cx="1010" cy="130" r="1.2" fill="#ffffff" opacity="0.8"/><circle cx="1180" cy="140" r="1.7999999999999998" fill="#ffffff" opacity="0.8"/><circle cx="150" cy="150" r="0.6" fill="#ffffff" opacity="0.8"/><circle cx="320" cy="160" r="1.2" fill="#ffffff" opacity="0.8"/><circle cx="490" cy="170" r="1.7999999999999998" fill="#ffffff" opacity="0.8"/><circle cx="660" cy="180" r="0.6" fill="#ffffff" opacity="0.8"/><circle cx="830" cy="190" r="1.2" fill="#ffffff" opacity="0.8"/><circle cx="1000" cy="200" r="1.7999999999999998" fill="#ffffff" opacity="0.8"/><circle cx="1170" cy="210" r="0.6" fill="#ffffff" opacity="0.8"/><circle cx="140" cy="0" r="1.2" fill="#ffffff" opacity="0.8"/><circle cx="310" cy="10" r="1.7999999999999998" fill="#ffffff" opacity="0.8"/><circle cx="480" cy="20" r="0.6" fill="#ffffff" opacity="0.8"/><circle cx="650" cy="30" r="1.2" fill="#ffffff" opacity="0.8"/><circle cx="820" cy="40" r="1.7999999999999998" fill="#ffffff" opacity="0.8"/><circle cx="990" cy="50" r="0.6" fill="#ffffff" opacity="0.8"/><circle cx="1160" cy="60" r="1.2" fill="#ffffff" opacity="0.8"/><circle cx="130" cy="70" r="1.7999999999999998" fill="#ffffff" opacity="0.8"/><circle cx="300" cy="80" r="0.6" fill="#ffffff" opacity="0.8"/><circle cx="470" cy="90" r="1.2" fill="#ffffff" opacity="0.8"/><circle cx="640" cy="100" r="1.7999999999999998" fill="#ffffff" opacity="0.8"/><circle cx="810" cy="110" r="0.6" fill="#ffffff" opacity="0.8"/><circle cx="980" cy="120" r="1.2" fill="#ffffff" opacity="0.8"/><circle cx="1150" cy="130" r="1.7999999999999998" fill="#ffffff" opacity="0.8"/><circle cx="120" cy="140" r="0.6" fill="#ffffff" opacity="0.8"/><circle cx="290" cy="150" r="1.2" fill="#ffffff" opacity="0.8"/><circle cx="460" cy="160" r="1.7999999999999998" fill="#ffffff" opacity="0.8"/><circle cx="630" cy="170" r="0.6" fill="#ffffff" opacity="0.8"/><circle cx="600" cy="600" r="180" fill="#ffd479" opacity="0.7"/><line x1="600" y1="600" x2="329.96986734704853" y2="469.29526611698634" stroke="#ffcf7a" stroke-width="5" stroke-linecap="round" opacity="0.3"/><line x1="600" y1="600" x2="376.6070640087422" y2="399.7611522476075" stroke="#ffcf7a" stroke-width="5" stroke-linecap="round" opacity="0.3"/><line x1="600" y1="600" x2="440.644140623735" y2="345.8234666959752" stroke="#ffcf7a" stroke-width="5" stroke-linecap="round" opacity="0.3"/><line x1="600" y1="600" x2="517.0933054307659" y2="311.6833685067687" stroke="#ffcf7a" stroke-width="5" stroke-linecap="round" opacity="0.3"/><line x1="600" y1="600" x2="600.0" y2="300.0" stroke="#ffcf7a" stroke-width="5" stroke-linecap="round" opacity="0.3"/><line x1="600" y1="600" x2="682.9066945692341" y2="311.6833685067687" stroke="#ffcf7a" stroke-width="5" stroke-linecap="round" opacity="0.3"/><line x1="600" y1="600" x2="759.355859376265" y2="345.8234666959752" stroke="#ffcf7a" stroke-width="5" stroke-linecap="round" opacity="0.3"/><line x1="600" y1="600" x2="823.3929359912578" y2="399.7611522476076" stroke="#ffcf7a" stroke-width="5" stroke-linecap="round" opacity="0.3"/><line x1="600" y1="600" x2="870.0301326529516" y2="469.2952661169864" stroke="#ffcf7a" stroke-width="5" stroke-linecap="round" opacity="0.3"/></svg>