<svg xmlns="http://www.w3.org/2000/svg" viewBox="0 0 1200 675" preserveAspectRatio="xMidYMid slice" role="img"><defs><linearGradient id="sk" x1="0" y1="0" x2="0" y2="1"><stop offset="0" stop-color="#20305a"/><stop offset="1" stop-color="#0c1330"/></linearGradient><radialGradient id="lamp" cx="50%" cy="70%" r="60%"><stop offset="0" stop-color="#ffd98f"/><stop offset="0.5" stop-color="#c98a44" stop-opacity="0.5"/><stop offset="1" stop-color="#0c1330" stop-opacity="0"/></radialGradient></defs><rect x="0" y="0" width="1200" height="675" rx="0" fill="url(#sk)" /><path d="M120 675 q480 -560 960 0 Z" fill="#22305a" /><path d="M150 675 q90.0 -300 225.0 -300" stroke="#33436e" stroke-width="2.5" fill="none" opacity="0.6"/><path d="M245 675 q71.0 -308 177.5 -308" stroke="#33436e" stroke-width="2.5" fill="none" opacity="0.6"/><path d="M340 675 q52.0 -316 130.0 -316" stroke="#33436e" stroke-width="2.5" fill="none" opacity="0.6"/><path d="M435 675 q33.0 -324 82.5 -324" stroke="#33436e" stroke-width="2.5" fill="none" opacity="0.6"/><path d="M530 675 q14.0 -332 35.0 -332" stroke="#33436e" stroke-width="2.5" fill="none" opacity="0.6"/><path d="M625 675 q-5.0 -340 -12.5 -340" stroke="#33436e" stroke-width="2.5" fill="none" opacity="0.6"/><path d="M720 675 q-24.0 -348 -60.0 -348" stroke="#33436e" stroke-width="2.5" fill="none" opacity="0.6"/><path d="M815 675 q-43.0 -356 -107.5 -356" stroke="#33436e" stroke-width="2.5" fill="none" opacity="0.6"/><path d="M910 675 q-62.0 -364 -155.0 -364" stroke="#33436e" stroke-width="2.5" fill="none" opacity="0.6"/><path d="M1005 675 q-81.0 -372 -202.5 -372" stroke="#33436e" stroke-width="2.5" fill="none" opacity="0.6"/><line x1="140" y1="300" x2="1060" y2="300" stroke="#2a3a66" stroke-width="2" stroke-linecap="round" opacity="0.4"/><line x1="140" y1="380" x2="1060" y2="380" stroke="#2a3a66" stroke-width="2" stroke-linecap="round" opacity="0.4"/><line x1="140" y1="460" x2="1060" y2="460" stroke="#2a3a66" stroke-width="2" stroke-linecap="round" opacity="0.4"/><rect x="0" y="0" width="1200" height="675" rx="0" fill="url(#lamp)" /><ellipse cx="600" cy="560" rx="120" ry="30" fill="#2a2030"/><path d="M500 560 q100 -40 200 0 q-8 26 -100 26 q-92 0 -100 -26 Z" fill="#4a3a2a" /><path d="M520 556 q6 -30 12 0 Z" fill="#ffcf7a" /><path d="M550 556 q6 -30 12 0 Z" fill="#ffcf7a" /><path d="M580 556 q6 -30 12 0 Z" fill="#ffcf7a" /><path d="M610 556 q6 -30 12 0 Z" fill="#ffcf7a" /><path d="M640 556 q6 -30 12 0 Z" fill="#ffcf7a" /><path d="M670 556 q6 -30 12 0 Z" fill="#ffcf7a" /><ellipse cx="600" cy="556" rx="90" ry="12" fill="#ffd98f" opacity="0.85"/></svg>