<svg xmlns="http://www.w3.org/2000/svg" viewBox="0 0 1200 675" preserveAspectRatio="xMidYMid slice" role="img"><defs><linearGradient id="e" x1="0" y1="0" x2="0" y2="1"><stop offset="0" stop-color="#0e1530"/><stop offset="1" stop-color="#05080f"/></linearGradient></defs><rect x="0" y="0" width="1200" height="675" rx="0" fill="url(#e)" /><path d="M0 675 q600 -120 1200 0 Z" fill="#12203f" /><path d="M420 675 q180 -320 360 0 Z" fill="#060a14" /><ellipse cx="600" cy="560" rx="200" ry="40" fill="#0a1020"/><circle cx="0" cy="0" r="0.6" fill="#ffffff" opacity="0.8"/><circle cx="274" cy="178" r="1.2" fill="#ffffff" opacity="0.8"/><circle cx="548" cy="56" r="1.7999999999999998" fill="#ffffff" opacity="0.8"/><circle cx="822" cy="234" r="0.6" fill="#ffffff" opacity="0.8"/><circle cx="1096" cy="112" r="1.2" fill="#ffffff" opacity="0.8"/><circle cx="170" cy="290" r="1.7999999999999998" fill="#ffffff" opacity="0.8"/><circle cx="444" cy="168" r="0.6" fill="#ffffff" opacity="0.8"/><circle cx="718" cy="46" r="1.2" fill="#ffffff" opacity="0.8"/><circle cx="992" cy="224" r="1.7999999999999998" fill="#ffffff" opacity="0.8"/><circle cx="66" cy="102" r="0.6" fill="#ffffff" opacity="0.8"/><circle cx="340" cy="280" r="1.2" fill="#ffffff" opacity="0.8"/><circle cx="614" cy="158" r="1.7999999999999998" fill="#ffffff" opacity="0.8"/><circle cx="888" cy="36" r="0.6" fill="#ffffff" opacity="0.8"/><circle cx="1162" cy="214" r="1.2" fill="#ffffff" opacity="0.8"/><circle cx="236" cy="92" r="1.7999999999999998" fill="#ffffff" opacity="0.8"/><circle cx="510" cy="270" r="0.6" fill="#ffffff" opacity="0.8"/><circle cx="784" cy="148" r="1.2" fill="#ffffff" opacity="0.8"/><circle cx="1058" cy="26" r="1.7999999999999998" fill="#ffffff" opacity="0.8"/><circle cx="132" cy="204" r="0.6" fill="#ffffff" opacity="0.8"/><circle cx="406" cy="82" r="1.2" fill="#ffffff" opacity="0.8"/><circle cx="680" cy="260" r="1.7999999999999998" fill="#ffffff" opacity="0.8"/><circle cx="954" cy="138" r="0.6" fill="#ffffff" opacity="0.8"/><circle cx="28" cy="16" r="1.2" fill="#ffffff" opacity="0.8"/><circle cx="302" cy="194" r="1.7999999999999998" fill="#ffffff" opacity="0.8"/><circle cx="576" cy="72" r="0.6" fill="#ffffff" opacity="0.8"/><circle cx="850" cy="250" r="1.2" fill="#ffffff" opacity="0.8"/><circle cx="1124" cy="128" r="1.7999999999999998" fill="#ffffff" opacity="0.8"/><circle cx="198" cy="6" r="0.6" fill="#ffffff" opacity="0.8"/><circle cx="472" cy="184" r="1.2" fill="#ffffff" opacity="0.8"/><circle cx="746" cy="62" r="1.7999999999999998" fill="#ffffff" opacity="0.8"/><circle cx="1020" cy="240" r="0.6" fill="#ffffff" opacity="0.8"/><circle cx="94" cy="118" r="1.2" fill="#ffffff" opacity="0.8"/><circle cx="368" cy="296" r="1.7999999999999998" fill="#ffffff" opacity="0.8"/><circle cx="642" cy="174" r="0.6" fill="#ffffff" opacity="0.8"/><circle cx="916" cy="52" r="1.2" fill="#ffffff" opacity="0.8"/><circle cx="1190" cy="230" r="1.7999999999999998" fill="#ffffff" opacity="0.8"/><circle cx="264" cy="108" r="0.6" fill="#ffffff" opacity="0.8"/><circle cx="538" cy="286" r="1.2" fill="#ffffff" opacity="0.8"/><circle cx="812" cy="164" r="1.7999999999999998" fill="#ffffff" opacity="0.8"/><circle cx="1086" cy="42" r="0.6" fill="#ffffff" opacity="0.8"/></svg>