<svg xmlns="http://www.w3.org/2000/svg" viewBox="0 0 1200 675" preserveAspectRatio="xMidYMid slice" role="img"><defs><linearGradient id="t" x1="0" y1="0" x2="0" y2="1"><stop offset="0" stop-color="#0a0e26"/><stop offset="1" stop-color="#122045"/></linearGradient></defs><rect x="0" y="0" width="1200" height="675" rx="0" fill="url(#t)" /><circle cx="0" cy="0" r="0.5" fill="#ffffff" opacity="0.7"/><circle cx="197" cy="113" r="1.2" fill="#ffffff" opacity="0.7"/><circle cx="394" cy="226" r="1.9" fill="#ffffff" opacity="0.7"/><circle cx="591" cy="339" r="0.5" fill="#ffffff" opacity="0.7"/><circle cx="788" cy="452" r="1.2" fill="#ffffff" opacity="0.7"/><circle cx="985" cy="565" r="1.9" fill="#ffffff" opacity="0.7"/><circle cx="1182" cy="3" r="0.5" fill="#ffffff" opacity="0.7"/><circle cx="179" cy="116" r="1.2" fill="#ffffff" opacity="0.7"/><circle cx="376" cy="229" r="1.9" fill="#ffffff" opacity="0.7"/><circle cx="573" cy="342" r="0.5" fill="#ffffff" opacity="0.7"/><circle cx="770" cy="455" r="1.2" fill="#ffffff" opacity="0.7"/><circle cx="967" cy="568" r="1.9" fill="#ffffff" opacity="0.7"/><circle cx="1164" cy="6" r="0.5" fill="#ffffff" opacity="0.7"/><circle cx="161" cy="119" r="1.2" fill="#ffffff" opacity="0.7"/><circle cx="358" cy="232" r="1.9" fill="#ffffff" opacity="0.7"/><circle cx="555" cy="345" r="0.5" fill="#ffffff" opacity="0.7"/><circle cx="752" cy="458" r="1.2" fill="#ffffff" opacity="0.7"/><circle cx="949" cy="571" r="1.9" fill="#ffffff" opacity="0.7"/><circle cx="1146" cy="9" r="0.5" fill="#ffffff" opacity="0.7"/><circle cx="143" cy="122" r="1.2" fill="#ffffff" opacity="0.7"/><circle cx="340" cy="235" r="1.9" fill="#ffffff" opacity="0.7"/><circle cx="537" cy="348" r="0.5" fill="#ffffff" opacity="0.7"/><circle cx="734" cy="461" r="1.2" fill="#ffffff" opacity="0.7"/><circle cx="931" cy="574" r="1.9" fill="#ffffff" opacity="0.7"/><circle cx="1128" cy="12" r="0.5" fill="#ffffff" opacity="0.7"/><circle cx="125" cy="125" r="1.2" fill="#ffffff" opacity="0.7"/><circle cx="322" cy="238" r="1.9" fill="#ffffff" opacity="0.7"/><circle cx="519" cy="351" r="0.5" fill="#ffffff" opacity="0.7"/><circle cx="716" cy="464" r="1.2" fill="#ffffff" opacity="0.7"/><circle cx="913" cy="577" r="1.9" fill="#ffffff" opacity="0.7"/><circle cx="1110" cy="15" r="0.5" fill="#ffffff" opacity="0.7"/><circle cx="107" cy="128" r="1.2" fill="#ffffff" opacity="0.7"/><circle cx="304" cy="241" r="1.9" fill="#ffffff" opacity="0.7"/><circle cx="501" cy="354" r="0.5" fill="#ffffff" opacity="0.7"/><circle cx="698" cy="467" r="1.2" fill="#ffffff" opacity="0.7"/><circle cx="895" cy="580" r="1.9" fill="#ffffff" opacity="0.7"/><circle cx="1092" cy="18" r="0.5" fill="#ffffff" opacity="0.7"/><circle cx="89" cy="131" r="1.2" fill="#ffffff" opacity="0.7"/><circle cx="286" cy="244" r="1.9" fill="#ffffff" opacity="0.7"/><circle cx="483" cy="357" r="0.5" fill="#ffffff" opacity="0.7"/><circle cx="680" cy="470" r="1.2" fill="#ffffff" opacity="0.7"/><circle cx="877" cy="583" r="1.9" fill="#ffffff" opacity="0.7"/><circle cx="1074" cy="21" r="0.5" fill="#ffffff" opacity="0.7"/><circle cx="71" cy="134" r="1.2" fill="#ffffff" opacity="0.7"/><circle cx="268" cy="247" r="1.9" fill="#ffffff" opacity="0.7"/><circle cx="465" cy="360" r="0.5" fill="#ffffff" opacity="0.7"/><circle cx="662" cy="473" r="1.2" fill="#ffffff" opacity="0.7"/><circle cx="859" cy="586" r="1.9" fill="#ffffff" opacity="0.7"/><circle cx="1056" cy="24" r="0.5" fill="#ffffff" opacity="0.7"/><circle cx="53" cy="137" r="1.2" fill="#ffffff" opacity="0.7"/><circle cx="250" cy="250" r="1.9" fill="#ffffff" opacity="0.7"/><circle cx="447" cy="363" r="0.5" fill="#ffffff" opacity="0.7"/><circle cx="644" cy="476" r="1.2" fill="#ffffff" opacity="0.7"/><circle cx="841" cy="589" r="1.9" fill="#ffffff" opacity="0.7"/><circle cx="1038" cy="27" r="0.5" fill="#ffffff" opacity="0.7"/><circle cx="35" cy="140" r="1.2" fill="#ffffff" opacity="0.7"/><circle cx="232" cy="253" r="1.9" fill="#ffffff" opacity="0.7"/><circle cx="429" cy="366" r="0.5" fill="#ffffff" opacity="0.7"/><circle cx="626" cy="479" r="1.2" fill="#ffffff" opacity="0.7"/><circle cx="823" cy="592" r="1.9" fill="#ffffff" opacity="0.7"/><circle cx="1020" cy="30" r="0.5" fill="#ffffff" opacity="0.7"/><circle cx="17" cy="143" r="1.2" fill="#ffffff" opacity="0.7"/><circle cx="214" cy="256" r="1.9" fill="#ffffff" opacity="0.7"/><circle cx="411" cy="369" r="0.5" fill="#ffffff" opacity="0.7"/><circle cx="608" cy="482" r="1.2" fill="#ffffff" opacity="0.7"/><circle cx="805" cy="595" r="1.9" fill="#ffffff" opacity="0.7"/><circle cx="1002" cy="33" r="0.5" fill="#ffffff" opacity="0.7"/><circle cx="1199" cy="146" r="1.2" fill="#ffffff" opacity="0.7"/><circle cx="196" cy="259" r="1.9" fill="#ffffff" opacity="0.7"/><circle cx="393" cy="372" r="0.5" fill="#ffffff" opacity="0.7"/><circle cx="590" cy="485" r="1.2" fill="#ffffff" opacity="0.7"/><circle cx="787" cy="598" r="1.9" fill="#ffffff" opacity="0.7"/><circle cx="984" cy="36" r="0.5" fill="#ffffff" opacity="0.7"/><circle cx="1181" cy="149" r="1.2" fill="#ffffff" opacity="0.7"/><circle cx="178" cy="262" r="1.9" fill="#ffffff" opacity="0.7"/><circle cx="375" cy="375" r="0.5" fill="#ffffff" opacity="0.7"/><circle cx="572" cy="488" r="1.2" fill="#ffffff" opacity="0.7"/><circle cx="769" cy="601" r="1.9" fill="#ffffff" opacity="0.7"/><circle cx="966" cy="39" r="0.5" fill="#ffffff" opacity="0.7"/><circle cx="1163" cy="152" r="1.2" fill="#ffffff" opacity="0.7"/><circle cx="160" cy="265" r="1.9" fill="#ffffff" opacity="0.7"/><circle cx="357" cy="378" r="0.5" fill="#ffffff" opacity="0.7"/><circle cx="554" cy="491" r="1.2" fill="#ffffff" opacity="0.7"/><circle cx="751" cy="604" r="1.9" fill="#ffffff" opacity="0.7"/><circle cx="948" cy="42" r="0.5" fill="#ffffff" opacity="0.7"/><circle cx="1145" cy="155" r="1.2" fill="#ffffff" opacity="0.7"/><circle cx="142" cy="268" r="1.9" fill="#ffffff" opacity="0.7"/><circle cx="339" cy="381" r="0.5" fill="#ffffff" opacity="0.7"/><circle cx="536" cy="494" r="1.2" fill="#ffffff" opacity="0.7"/><circle cx="733" cy="607" r="1.9" fill="#ffffff" opacity="0.7"/><circle cx="930" cy="45" r="0.5" fill="#ffffff" opacity="0.7"/><circle cx="1127" cy="158" r="1.2" fill="#ffffff" opacity="0.7"/><circle cx="124" cy="271" r="1.9" fill="#ffffff" opacity="0.7"/><circle cx="321" cy="384" r="0.5" fill="#ffffff" opacity="0.7"/><circle cx="518" cy="497" r="1.2" fill="#ffffff" opacity="0.7"/><circle cx="715" cy="610" r="1.9" fill="#ffffff" opacity="0.7"/><circle cx="912" cy="48" r="0.5" fill="#ffffff" opacity="0.7"/><circle cx="1109" cy="161" r="1.2" fill="#ffffff" opacity="0.7"/><circle cx="106" cy="274" r="1.9" fill="#ffffff" opacity="0.7"/><circle cx="303" cy="387" r="0.5" fill="#ffffff" opacity="0.7"/><circle cx="500" cy="500" r="1.2" fill="#ffffff" opacity="0.7"/><circle cx="697" cy="613" r="1.9" fill="#ffffff" opacity="0.7"/><circle cx="894" cy="51" r="0.5" fill="#ffffff" opacity="0.7"/><circle cx="1091" cy="164" r="1.2" fill="#ffffff" opacity="0.7"/><circle cx="88" cy="277" r="1.9" fill="#ffffff" opacity="0.7"/><circle cx="285" cy="390" r="0.5" fill="#ffffff" opacity="0.7"/><circle cx="482" cy="503" r="1.2" fill="#ffffff" opacity="0.7"/><circle cx="679" cy="616" r="1.9" fill="#ffffff" opacity="0.7"/><circle cx="876" cy="54" r="0.5" fill="#ffffff" opacity="0.7"/><circle cx="1073" cy="167" r="1.2" fill="#ffffff" opacity="0.7"/><circle cx="70" cy="280" r="1.9" fill="#ffffff" opacity="0.7"/><circle cx="267" cy="393" r="0.5" fill="#ffffff" opacity="0.7"/><circle cx="464" cy="506" r="1.2" fill="#ffffff" opacity="0.7"/><circle cx="661" cy="619" r="1.9" fill="#ffffff" opacity="0.7"/><circle cx="858" cy="57" r="0.5" fill="#ffffff" opacity="0.7"/><circle cx="1055" cy="170" r="1.2" fill="#ffffff" opacity="0.7"/><circle cx="52" cy="283" r="1.9" fill="#ffffff" opacity="0.7"/><circle cx="249" cy="396" r="0.5" fill="#ffffff" opacity="0.7"/><circle cx="446" cy="509" r="1.2" fill="#ffffff" opacity="0.7"/><circle cx="643" cy="622" r="1.9" fill="#ffffff" opacity="0.7"/><path d="M-40 240 q320 -120 660 10 q320 130 620 -20 l0 90 q-300 140 -620 10 q-340 -130 -660 -10 Z" fill="#7ef1c9" opacity="0.30"/><path d="M-40 300 q320 -90 660 30 q300 110 620 0 l0 70 q-300 110 -620 0 q-340 -110 -660 -20 Z" fill="#b79bff" opacity="0.24"/><path d="M0 560 q300 -50 600 -6 q300 44 600 -16 l0 137 l-1200 0 Z" fill="#0c1428" /></svg>