<svg xmlns="http://www.w3.org/2000/svg" viewBox="0 0 1200 675" preserveAspectRatio="xMidYMid slice" role="img"><defs><linearGradient id="tc" x1="0" y1="0" x2="0" y2="1"><stop offset="0" stop-color="#122a4e"/><stop offset="1" stop-color="#0c1a34"/></linearGradient></defs><rect x="0" y="0" width="1200" height="675" rx="0" fill="url(#tc)" /><circle cx="0" cy="0" r="0.6" fill="#ffffff" opacity="0.8"/><circle cx="548" cy="56" r="1.2" fill="#ffffff" opacity="0.8"/><circle cx="1096" cy="112" r="1.7999999999999998" fill="#ffffff" opacity="0.8"/><circle cx="444" cy="168" r="0.6" fill="#ffffff" opacity="0.8"/><circle cx="992" cy="224" r="1.2" fill="#ffffff" opacity="0.8"/><circle cx="340" cy="280" r="1.7999999999999998" fill="#ffffff" opacity="0.8"/><circle cx="888" cy="36" r="0.6" fill="#ffffff" opacity="0.8"/><circle cx="236" cy="92" r="1.2" fill="#ffffff" opacity="0.8"/><circle cx="784" cy="148" r="1.7999999999999998" fill="#ffffff" opacity="0.8"/><circle cx="132" cy="204" r="0.6" fill="#ffffff" opacity="0.8"/><circle cx="680" cy="260" r="1.2" fill="#ffffff" opacity="0.8"/><circle cx="28" cy="16" r="1.7999999999999998" fill="#ffffff" opacity="0.8"/><circle cx="576" cy="72" r="0.6" fill="#ffffff" opacity="0.8"/><circle cx="1124" cy="128" r="1.2" fill="#ffffff" opacity="0.8"/><circle cx="472" cy="184" r="1.7999999999999998" fill="#ffffff" opacity="0.8"/><circle cx="1020" cy="240" r="0.6" fill="#ffffff" opacity="0.8"/><circle cx="368" cy="296" r="1.2" fill="#ffffff" opacity="0.8"/><circle cx="916" cy="52" r="1.7999999999999998" fill="#ffffff" opacity="0.8"/><circle cx="264" cy="108" r="0.6" fill="#ffffff" opacity="0.8"/><circle cx="812" cy="164" r="1.2" fill="#ffffff" opacity="0.8"/><circle cx="160" cy="220" r="1.7999999999999998" fill="#ffffff" opacity="0.8"/><circle cx="708" cy="276" r="0.6" fill="#ffffff" opacity="0.8"/><circle cx="56" cy="32" r="1.2" fill="#ffffff" opacity="0.8"/><circle cx="604" cy="88" r="1.7999999999999998" fill="#ffffff" opacity="0.8"/><circle cx="1152" cy="144" r="0.6" fill="#ffffff" opacity="0.8"/><circle cx="500" cy="200" r="1.2" fill="#ffffff" opacity="0.8"/><circle cx="1048" cy="256" r="1.7999999999999998" fill="#ffffff" opacity="0.8"/><circle cx="396" cy="12" r="0.6" fill="#ffffff" opacity="0.8"/><circle cx="944" cy="68" r="1.2" fill="#ffffff" opacity="0.8"/><circle cx="292" cy="124" r="1.7999999999999998" fill="#ffffff" opacity="0.8"/><circle cx="840" cy="180" r="0.6" fill="#ffffff" opacity="0.8"/><circle cx="188" cy="236" r="1.2" fill="#ffffff" opacity="0.8"/><circle cx="736" cy="292" r="1.7999999999999998" fill="#ffffff" opacity="0.8"/><circle cx="84" cy="48" r="0.6" fill="#ffffff" opacity="0.8"/><circle cx="632" cy="104" r="1.2" fill="#ffffff" opacity="0.8"/><circle cx="1180" cy="160" r="1.7999999999999998" fill="#ffffff" opacity="0.8"/><circle cx="528" cy="216" r="0.6" fill="#ffffff" opacity="0.8"/><circle cx="1076" cy="272" r="1.2" fill="#ffffff" opacity="0.8"/><circle cx="424" cy="28" r="1.7999999999999998" fill="#ffffff" opacity="0.8"/><circle cx="972" cy="84" r="0.6" fill="#ffffff" opacity="0.8"/><circle cx="320" cy="140" r="1.2" fill="#ffffff" opacity="0.8"/><circle cx="868" cy="196" r="1.7999999999999998" fill="#ffffff" opacity="0.8"/><circle cx="216" cy="252" r="0.6" fill="#ffffff" opacity="0.8"/><circle cx="764" cy="8" r="1.2" fill="#ffffff" opacity="0.8"/><circle cx="112" cy="64" r="1.7999999999999998" fill="#ffffff" opacity="0.8"/><circle cx="660" cy="120" r="0.6" fill="#ffffff" opacity="0.8"/><circle cx="8" cy="176" r="1.2" fill="#ffffff" opacity="0.8"/><circle cx="556" cy="232" r="1.7999999999999998" fill="#ffffff" opacity="0.8"/><circle cx="1104" cy="288" r="0.6" fill="#ffffff" opacity="0.8"/><circle cx="452" cy="44" r="1.2" fill="#ffffff" opacity="0.8"/><path d="M0 500 q600 -50 1200 0 l0 175 l-1200 0 Z" fill="#12203f" /><path d="M0 560 q600 30 1200 0 l0 115 l-1200 0 Z" fill="#0e1a34" /></svg>