<svg xmlns="http://www.w3.org/2000/svg" viewBox="0 0 1200 675" preserveAspectRatio="xMidYMid slice" role="img"><defs><linearGradient id="sky3" x1="0" y1="0" x2="0" y2="1"><stop offset="0" stop-color="#7fb0d6"/><stop offset="1" stop-color="#cfe4f2"/></linearGradient><linearGradient id="gr" x1="0" y1="0" x2="0" y2="1"><stop offset="0" stop-color="#6f7f5a"/><stop offset="1" stop-color="#4a5a3a"/></linearGradient></defs><rect x="0" y="0" width="1200" height="675" rx="0" fill="url(#sky3)" /><circle cx="220" cy="130" r="54" fill="#fff2cf" /><path d="M0 420 q300 -80 600 -20 q300 60 600 -30 l0 305 l-1200 0 Z" fill="#8a9a6a" /><rect x="0" y="470" width="1200" height="205" rx="0" fill="url(#gr)" /><path d="M60 470 q6 -30 12 0 Z" fill="#5a6a3a" /><path d="M150 470 q6 -30 12 0 Z" fill="#5a6a3a" /><path d="M240 470 q6 -30 12 0 Z" fill="#5a6a3a" /><path d="M330 470 q6 -30 12 0 Z" fill="#5a6a3a" /><path d="M420 470 q6 -30 12 0 Z" fill="#5a6a3a" /><path d="M510 470 q6 -30 12 0 Z" fill="#5a6a3a" /><path d="M600 470 q6 -30 12 0 Z" fill="#5a6a3a" /><path d="M690 470 q6 -30 12 0 Z" fill="#5a6a3a" /><path d="M780 470 q6 -30 12 0 Z" fill="#5a6a3a" /><path d="M870 470 q6 -30 12 0 Z" fill="#5a6a3a" /><path d="M960 470 q6 -30 12 0 Z" fill="#5a6a3a" /><path d="M1050 470 q6 -30 12 0 Z" fill="#5a6a3a" /><path d="M1140 470 q6 -30 12 0 Z" fill="#5a6a3a" /><circle cx="120" cy="500" r="5" fill="#ff8ba7" opacity="0.6"/><circle cx="280" cy="500" r="5" fill="#ff8ba7" opacity="0.6"/><circle cx="440" cy="500" r="5" fill="#ff8ba7" opacity="0.6"/><circle cx="600" cy="500" r="5" fill="#ff8ba7" opacity="0.6"/><circle cx="760" cy="500" r="5" fill="#ff8ba7" opacity="0.6"/><circle cx="920" cy="500" r="5" fill="#ff8ba7" opacity="0.6"/><circle cx="1080" cy="500" r="5" fill="#ff8ba7" opacity="0.6"/></svg>