<svg xmlns="http://www.w3.org/2000/svg" viewBox="0 0 1200 675" preserveAspectRatio="xMidYMid slice" role="img"><defs><linearGradient id="t" x1="0" y1="0" x2="0" y2="1"><stop offset="0" stop-color="#0a0e26"/><stop offset="0.7" stop-color="#12204a"/><stop offset="1" stop-color="#0c1730"/></linearGradient></defs><rect x="0" y="0" width="1200" height="675" rx="0" fill="url(#t)" /><circle cx="0" cy="0" r="0.6" fill="#ffffff" opacity="0.8"/><circle cx="137" cy="89" r="1.2" fill="#ffffff" opacity="0.8"/><circle cx="274" cy="178" r="1.7999999999999998" fill="#ffffff" opacity="0.8"/><circle cx="411" cy="267" r="0.6" fill="#ffffff" opacity="0.8"/><circle cx="548" cy="356" r="1.2" fill="#ffffff" opacity="0.8"/><circle cx="685" cy="65" r="1.7999999999999998" fill="#ffffff" opacity="0.8"/><circle cx="822" cy="154" r="0.6" fill="#ffffff" opacity="0.8"/><circle cx="959" cy="243" r="1.2" fill="#ffffff" opacity="0.8"/><circle cx="1096" cy="332" r="1.7999999999999998" fill="#ffffff" opacity="0.8"/><circle cx="33" cy="41" r="0.6" fill="#ffffff" opacity="0.8"/><circle cx="170" cy="130" r="1.2" fill="#ffffff" opacity="0.8"/><circle cx="307" cy="219" r="1.7999999999999998" fill="#ffffff" opacity="0.8"/><circle cx="444" cy="308" r="0.6" fill="#ffffff" opacity="0.8"/><circle cx="581" cy="17" r="1.2" fill="#ffffff" opacity="0.8"/><circle cx="718" cy="106" r="1.7999999999999998" fill="#ffffff" opacity="0.8"/><circle cx="855" cy="195" r="0.6" fill="#ffffff" opacity="0.8"/><circle cx="992" cy="284" r="1.2" fill="#ffffff" opacity="0.8"/><circle cx="1129" cy="373" r="1.7999999999999998" fill="#ffffff" opacity="0.8"/><circle cx="66" cy="82" r="0.6" fill="#ffffff" opacity="0.8"/><circle cx="203" cy="171" r="1.2" fill="#ffffff" opacity="0.8"/><circle cx="340" cy="260" r="1.7999999999999998" fill="#ffffff" opacity="0.8"/><circle cx="477" cy="349" r="0.6" fill="#ffffff" opacity="0.8"/><circle cx="614" cy="58" r="1.2" fill="#ffffff" opacity="0.8"/><circle cx="751" cy="147" r="1.7999999999999998" fill="#ffffff" opacity="0.8"/><circle cx="888" cy="236" r="0.6" fill="#ffffff" opacity="0.8"/><circle cx="1025" cy="325" r="1.2" fill="#ffffff" opacity="0.8"/><circle cx="1162" cy="34" r="1.7999999999999998" fill="#ffffff" opacity="0.8"/><circle cx="99" cy="123" r="0.6" fill="#ffffff" opacity="0.8"/><circle cx="236" cy="212" r="1.2" fill="#ffffff" opacity="0.8"/><circle cx="373" cy="301" r="1.7999999999999998" fill="#ffffff" opacity="0.8"/><circle cx="510" cy="10" r="0.6" fill="#ffffff" opacity="0.8"/><circle cx="647" cy="99" r="1.2" fill="#ffffff" opacity="0.8"/><circle cx="784" cy="188" r="1.7999999999999998" fill="#ffffff" opacity="0.8"/><circle cx="921" cy="277" r="0.6" fill="#ffffff" opacity="0.8"/><circle cx="1058" cy="366" r="1.2" fill="#ffffff" opacity="0.8"/><circle cx="1195" cy="75" r="1.7999999999999998" fill="#ffffff" opacity="0.8"/><circle cx="132" cy="164" r="0.6" fill="#ffffff" opacity="0.8"/><circle cx="269" cy="253" r="1.2" fill="#ffffff" opacity="0.8"/><circle cx="406" cy="342" r="1.7999999999999998" fill="#ffffff" opacity="0.8"/><circle cx="543" cy="51" r="0.6" fill="#ffffff" opacity="0.8"/><circle cx="680" cy="140" r="1.2" fill="#ffffff" opacity="0.8"/><circle cx="817" cy="229" r="1.7999999999999998" fill="#ffffff" opacity="0.8"/><circle cx="954" cy="318" r="0.6" fill="#ffffff" opacity="0.8"/><circle cx="1091" cy="27" r="1.2" fill="#ffffff" opacity="0.8"/><circle cx="28" cy="116" r="1.7999999999999998" fill="#ffffff" opacity="0.8"/><circle cx="165" cy="205" r="0.6" fill="#ffffff" opacity="0.8"/><circle cx="302" cy="294" r="1.2" fill="#ffffff" opacity="0.8"/><circle cx="439" cy="3" r="1.7999999999999998" fill="#ffffff" opacity="0.8"/><circle cx="576" cy="92" r="0.6" fill="#ffffff" opacity="0.8"/><circle cx="713" cy="181" r="1.2" fill="#ffffff" opacity="0.8"/><circle cx="850" cy="270" r="1.7999999999999998" fill="#ffffff" opacity="0.8"/><circle cx="987" cy="359" r="0.6" fill="#ffffff" opacity="0.8"/><circle cx="1124" cy="68" r="1.2" fill="#ffffff" opacity="0.8"/><circle cx="61" cy="157" r="1.7999999999999998" fill="#ffffff" opacity="0.8"/><circle cx="198" cy="246" r="0.6" fill="#ffffff" opacity="0.8"/><circle cx="335" cy="335" r="1.2" fill="#ffffff" opacity="0.8"/><circle cx="472" cy="44" r="1.7999999999999998" fill="#ffffff" opacity="0.8"/><circle cx="609" cy="133" r="0.6" fill="#ffffff" opacity="0.8"/><circle cx="746" cy="222" r="1.2" fill="#ffffff" opacity="0.8"/><circle cx="883" cy="311" r="1.7999999999999998" fill="#ffffff" opacity="0.8"/><circle cx="1020" cy="20" r="0.6" fill="#ffffff" opacity="0.8"/><circle cx="1157" cy="109" r="1.2" fill="#ffffff" opacity="0.8"/><circle cx="94" cy="198" r="1.7999999999999998" fill="#ffffff" opacity="0.8"/><circle cx="231" cy="287" r="0.6" fill="#ffffff" opacity="0.8"/><circle cx="368" cy="376" r="1.2" fill="#ffffff" opacity="0.8"/><circle cx="505" cy="85" r="1.7999999999999998" fill="#ffffff" opacity="0.8"/><circle cx="642" cy="174" r="0.6" fill="#ffffff" opacity="0.8"/><circle cx="779" cy="263" r="1.2" fill="#ffffff" opacity="0.8"/><circle cx="916" cy="352" r="1.7999999999999998" fill="#ffffff" opacity="0.8"/><circle cx="1053" cy="61" r="0.6" fill="#ffffff" opacity="0.8"/><circle cx="1190" cy="150" r="1.2" fill="#ffffff" opacity="0.8"/><circle cx="127" cy="239" r="1.7999999999999998" fill="#ffffff" opacity="0.8"/><circle cx="264" cy="328" r="0.6" fill="#ffffff" opacity="0.8"/><circle cx="401" cy="37" r="1.2" fill="#ffffff" opacity="0.8"/><circle cx="538" cy="126" r="1.7999999999999998" fill="#ffffff" opacity="0.8"/><circle cx="675" cy="215" r="0.6" fill="#ffffff" opacity="0.8"/><circle cx="812" cy="304" r="1.2" fill="#ffffff" opacity="0.8"/><circle cx="949" cy="13" r="1.7999999999999998" fill="#ffffff" opacity="0.8"/><circle cx="1086" cy="102" r="0.6" fill="#ffffff" opacity="0.8"/><circle cx="23" cy="191" r="1.2" fill="#ffffff" opacity="0.8"/><circle cx="160" cy="280" r="1.7999999999999998" fill="#ffffff" opacity="0.8"/><circle cx="297" cy="369" r="0.6" fill="#ffffff" opacity="0.8"/><circle cx="434" cy="78" r="1.2" fill="#ffffff" opacity="0.8"/><circle cx="571" cy="167" r="1.7999999999999998" fill="#ffffff" opacity="0.8"/><circle cx="708" cy="256" r="0.6" fill="#ffffff" opacity="0.8"/><circle cx="845" cy="345" r="1.2" fill="#ffffff" opacity="0.8"/><circle cx="982" cy="54" r="1.7999999999999998" fill="#ffffff" opacity="0.8"/><circle cx="1119" cy="143" r="0.6" fill="#ffffff" opacity="0.8"/><circle cx="56" cy="232" r="1.2" fill="#ffffff" opacity="0.8"/><circle cx="193" cy="321" r="1.7999999999999998" fill="#ffffff" opacity="0.8"/><path d="M-40 200 q300 -120 640 20 q300 130 640 -30 l0 120 q-340 150 -640 20 q-340 -130 -640 -10 Z" fill="#7ef1c9" opacity="0.22"/><path d="M-40 260 q300 -100 640 40 q300 120 640 -10 l0 80 q-340 120 -640 0 q-340 -120 -640 -20 Z" fill="#b79bff" opacity="0.17600000000000002"/><path d="M0 540 q300 -60 600 -10 q300 50 600 -20 l0 165 l-1200 0 Z" fill="#0e1730" /><path d="M0 600 q300 -30 600 0 q300 30 600 -10 l0 85 l-1200 0 Z" fill="#0a1226" /></svg>