<svg xmlns="http://www.w3.org/2000/svg" viewBox="0 0 1200 675" preserveAspectRatio="xMidYMid slice" role="img"><defs><radialGradient id="uh" cx="50%" cy="40%" r="80%"><stop offset="0" stop-color="#1a5a5e"/><stop offset="1" stop-color="#03121a"/></radialGradient></defs><rect x="0" y="0" width="1200" height="675" rx="0" fill="url(#uh)" /><circle cx="0" cy="0" r="1.5" fill="#8fe3d6" opacity="0.18"/><circle cx="151" cy="83" r="2.5" fill="#8fe3d6" opacity="0.18"/><circle cx="302" cy="166" r="3.5" fill="#8fe3d6" opacity="0.18"/><circle cx="453" cy="249" r="1.5" fill="#8fe3d6" opacity="0.18"/><circle cx="604" cy="332" r="2.5" fill="#8fe3d6" opacity="0.18"/><circle cx="755" cy="415" r="3.5" fill="#8fe3d6" opacity="0.18"/><circle cx="906" cy="498" r="1.5" fill="#8fe3d6" opacity="0.18"/><circle cx="1057" cy="581" r="2.5" fill="#8fe3d6" opacity="0.18"/><circle cx="8" cy="664" r="3.5" fill="#8fe3d6" opacity="0.18"/><circle cx="159" cy="72" r="1.5" fill="#8fe3d6" opacity="0.18"/><circle cx="310" cy="155" r="2.5" fill="#8fe3d6" opacity="0.18"/><circle cx="461" cy="238" r="3.5" fill="#8fe3d6" opacity="0.18"/><circle cx="612" cy="321" r="1.5" fill="#8fe3d6" opacity="0.18"/><circle cx="763" cy="404" r="2.5" fill="#8fe3d6" opacity="0.18"/><circle cx="914" cy="487" r="3.5" fill="#8fe3d6" opacity="0.18"/><circle cx="1065" cy="570" r="1.5" fill="#8fe3d6" opacity="0.18"/><circle cx="16" cy="653" r="2.5" fill="#8fe3d6" opacity="0.18"/><circle cx="167" cy="61" r="3.5" fill="#8fe3d6" opacity="0.18"/><circle cx="318" cy="144" r="1.5" fill="#8fe3d6" opacity="0.18"/><circle cx="469" cy="227" r="2.5" fill="#8fe3d6" opacity="0.18"/><circle cx="620" cy="310" r="3.5" fill="#8fe3d6" opacity="0.18"/><circle cx="771" cy="393" r="1.5" fill="#8fe3d6" opacity="0.18"/><circle cx="922" cy="476" r="2.5" fill="#8fe3d6" opacity="0.18"/><circle cx="1073" cy="559" r="3.5" fill="#8fe3d6" opacity="0.18"/><circle cx="24" cy="642" r="1.5" fill="#8fe3d6" opacity="0.18"/><circle cx="175" cy="50" r="2.5" fill="#8fe3d6" opacity="0.18"/><circle cx="326" cy="133" r="3.5" fill="#8fe3d6" opacity="0.18"/><circle cx="477" cy="216" r="1.5" fill="#8fe3d6" opacity="0.18"/><circle cx="628" cy="299" r="2.5" fill="#8fe3d6" opacity="0.18"/><circle cx="779" cy="382" r="3.5" fill="#8fe3d6" opacity="0.18"/><circle cx="930" cy="465" r="1.5" fill="#8fe3d6" opacity="0.18"/><circle cx="1081" cy="548" r="2.5" fill="#8fe3d6" opacity="0.18"/><circle cx="32" cy="631" r="3.5" fill="#8fe3d6" opacity="0.18"/><circle cx="183" cy="39" r="1.5" fill="#8fe3d6" opacity="0.18"/><circle cx="334" cy="122" r="2.5" fill="#8fe3d6" opacity="0.18"/><circle cx="485" cy="205" r="3.5" fill="#8fe3d6" opacity="0.18"/><circle cx="636" cy="288" r="1.5" fill="#8fe3d6" opacity="0.18"/><circle cx="787" cy="371" r="2.5" fill="#8fe3d6" opacity="0.18"/><circle cx="938" cy="454" r="3.5" fill="#8fe3d6" opacity="0.18"/><circle cx="1089" cy="537" r="1.5" fill="#8fe3d6" opacity="0.18"/><circle cx="40" cy="620" r="2.5" fill="#8fe3d6" opacity="0.18"/><circle cx="191" cy="28" r="3.5" fill="#8fe3d6" opacity="0.18"/><circle cx="342" cy="111" r="1.5" fill="#8fe3d6" opacity="0.18"/><circle cx="493" cy="194" r="2.5" fill="#8fe3d6" opacity="0.18"/><circle cx="644" cy="277" r="3.5" fill="#8fe3d6" opacity="0.18"/><circle cx="795" cy="360" r="1.5" fill="#8fe3d6" opacity="0.18"/><circle cx="946" cy="443" r="2.5" fill="#8fe3d6" opacity="0.18"/><circle cx="1097" cy="526" r="3.5" fill="#8fe3d6" opacity="0.18"/><circle cx="48" cy="609" r="1.5" fill="#8fe3d6" opacity="0.18"/><circle cx="199" cy="17" r="2.5" fill="#8fe3d6" opacity="0.18"/><path d="M0 620 q300 -40 600 0 t600 0 l0 55 l-1200 0 Z" fill="#0a2a30" /><path d="M120 675 q-20 -120 0 -240" fill="none" stroke="#2f7f74" stroke-width="4" opacity="0.25"/><path d="M270 675 q-20 -120 0 -240" fill="none" stroke="#2f7f74" stroke-width="4" opacity="0.25"/><path d="M420 675 q-20 -120 0 -240" fill="none" stroke="#2f7f74" stroke-width="4" opacity="0.25"/><path d="M570 675 q-20 -120 0 -240" fill="none" stroke="#2f7f74" stroke-width="4" opacity="0.25"/><path d="M720 675 q-20 -120 0 -240" fill="none" stroke="#2f7f74" stroke-width="4" opacity="0.25"/><path d="M870 675 q-20 -120 0 -240" fill="none" stroke="#2f7f74" stroke-width="4" opacity="0.25"/><path d="M1020 675 q-20 -120 0 -240" fill="none" stroke="#2f7f74" stroke-width="4" opacity="0.25"/></svg>