<svg xmlns="http://www.w3.org/2000/svg" viewBox="0 0 240 300" role="img"><defs><radialGradient id="bg" cx="50%" cy="35%" r="80%"><stop offset="0" stop-color="#3a2e5e"/><stop offset="1" stop-color="#1a1430"/></radialGradient></defs><rect width="240" height="300" fill="url(#bg)"/><path d="M40 300 q0 -90 80 -90 q80 0 80 90 Z" fill="#c96f4a" /><ellipse cx="120" cy="150" rx="78" ry="30" fill="#f3ece0"/><circle cx="120" cy="120" r="60" fill="#f3ece0" /><circle cx="120" cy="120" r="46" fill="#e7b58c" /><circle cx="103" cy="116" r="4.5" fill="#2a2140" /><circle cx="137" cy="116" r="4.5" fill="#2a2140" /><path d="M104 140 q16 14 32 0" stroke="#2a2140" stroke-width="4" fill="none" stroke-linecap="round"/><circle cx="100" cy="132" r="6" fill="#ff8ba7" opacity="0.35"/><circle cx="140" cy="132" r="6" fill="#ff8ba7" opacity="0.35"/><path d="M96 108 q10 6 20 0 M124 108 q10 6 20 0" stroke="#9fb0d6" stroke-width="3" fill="none"/><path d="M92 150 q28 8 56 0" stroke="#c98f63" stroke-width="2" fill="none" opacity="0.5"/></svg>