<svg xmlns="http://www.w3.org/2000/svg" viewBox="0 0 240 300" role="img"><defs><radialGradient id="bg" cx="50%" cy="35%" r="80%"><stop offset="0" stop-color="#2a1420"/><stop offset="1" stop-color="#120810"/></radialGradient></defs><rect width="240" height="300" fill="url(#bg)"/><path d="M120 50 q64 30 56 150 q-6 60 -56 66 q-50 -6 -56 -66 q-8 -120 56 -150 Z" fill="#3a2030" /><circle cx="104" cy="116" r="10" fill="#ffd479" /><circle cx="136" cy="116" r="10" fill="#ffd479" /><circle cx="104" cy="116" r="4" fill="#0b1020" /><circle cx="136" cy="116" r="4" fill="#0b1020" /><path d="M96 150 q24 20 48 0 l0 6 q-24 22 -48 0 Z" fill="#0b1020" /><polygon points="100,158 96,150 104,150" fill="#f3ece0" /><polygon points="108,158 104,150 112,150" fill="#f3ece0" /><polygon points="116,158 112,150 120,150" fill="#f3ece0" /><polygon points="124,158 120,150 128,150" fill="#f3ece0" /><polygon points="132,158 128,150 136,150" fill="#f3ece0" /><polygon points="140,158 136,150 144,150" fill="#f3ece0" /></svg>